<svg width="15" height="41" viewBox="0 0 15 41" fill="none" xmlns="http://www.w3.org/2000/svg">
<path d="M6.86727 13.9204C8.24891 11.4801 9.06395 8.94757 8.54134 7.52921C7.85366 5.72996 5.20483 5.55087 4.93521 7.72985C4.70344 9.60925 5.48552 11.8918 6.86727 13.9204ZM1.58731 7.11287C1.23457 10.2374 3.22729 14.389 4.90067 17.0739C5.43068 16.2865 5.98987 15.418 6.52674 14.5087C4.56138 11.6833 3.1321 8.84519 4.64405 6.37719C6.33796 3.80122 8.92486 5.10546 9.37531 7.27181C9.98467 8.93492 8.78327 11.8269 7.25741 14.4779C7.79723 15.23 8.37456 15.9607 8.94345 16.6577C10.6588 13.8492 12.4249 10.3778 12.3347 7.42604C12.2326 3.30062 9.62395 1.88992 7.0042 1.87509C4.38354 1.9493 1.7525 3.41987 1.58731 7.11287ZM1.25065 14.3063C0.98764 14.9456 0.931656 15.6093 1.01968 16.2831C1.1103 16.977 1.35382 17.6897 1.68343 18.4052C1.96024 19.0074 2.29939 19.6121 2.66183 20.215C3.06427 19.6794 3.72493 18.7857 4.47886 17.693C3.6799 16.38 2.80091 14.748 2.11403 13.0089C1.71329 13.4316 1.43226 13.8648 1.25065 14.3063ZM1.69607 22.9911C1.37115 23.7061 1.13299 24.4183 1.04669 25.1123C0.963236 25.7857 1.02344 26.4493 1.28849 27.0894C1.47136 27.5306 1.75204 27.9626 2.15026 28.3852C2.83077 26.6563 3.71021 25.0402 4.51339 23.7436C3.74817 22.6333 3.07316 21.7244 2.66432 21.1825C2.30486 21.7851 1.96911 22.3889 1.69607 22.9911ZM6.87012 27.4809C5.49863 29.5098 4.74643 31.7895 4.96508 33.6723C5.22092 35.861 7.81192 35.6857 8.52447 33.8741C9.06942 32.4655 8.24345 29.9215 6.87012 27.4809ZM1.65812 34.218C1.8469 37.9119 4.43119 39.3934 7.00374 39.4667C9.57551 39.4528 12.1357 38.0311 12.2626 33.9049C12.3672 30.9671 10.6533 27.5179 8.956 24.7179C8.38209 25.4229 7.79975 26.1616 7.25742 26.9226C8.77439 29.5744 9.95219 32.4663 9.3475 34.1312C8.89535 36.2993 6.35654 37.6059 4.68237 35.0258C3.18478 32.5544 4.57919 29.718 6.53143 26.8918C5.9891 25.9689 5.42273 25.0874 4.88587 24.2902C3.22651 26.9745 1.29193 31.104 1.65812 34.218ZM13.2154 27.427C13.4943 26.7544 13.5567 26.0567 13.4686 25.3475C13.3781 24.6168 13.1273 23.8671 12.7851 23.1141C12.5016 22.49 12.1245 21.8794 11.7405 21.2608C11.2547 21.9352 10.6352 22.6873 9.96232 23.4984C9.75586 23.7474 9.54381 24.0024 9.32937 24.2624C10.3124 25.9547 11.1948 27.6289 11.8366 29.2373C12.5143 28.6515 12.9575 28.0485 13.2154 27.427ZM7.51779 20.0958C7.40322 20.2832 7.28819 20.4708 7.17362 20.6583C7.17144 20.6621 7.16815 20.6663 7.16472 20.6714C7.16598 20.673 7.16724 20.6747 7.16816 20.6764C7.28273 20.864 7.39776 21.0514 7.51233 21.2386C8.01715 22.0632 8.51695 22.8823 8.99772 23.6956C9.16416 23.4937 9.32903 23.2952 9.49034 23.1002C10.2282 22.2107 10.9007 21.3936 11.3857 20.6988C10.9032 20.0047 10.2332 19.1881 9.49581 18.2994C9.3281 18.0967 9.15664 17.8902 8.98347 17.6803C8.50772 18.4802 8.0143 19.2854 7.51779 20.0958ZM6.88154 19.9626C6.9195 19.9006 6.95746 19.8392 6.99531 19.7771C7.46855 19.0047 8.0265 18.1426 8.60074 17.2156C8.03744 16.5275 7.46216 15.8053 6.91698 15.0568C6.37887 15.9561 5.80109 16.8287 5.24782 17.6247C5.93893 18.6993 6.54783 19.5247 6.88154 19.9626ZM5.2297 23.7394C5.79016 24.5456 6.37592 25.4308 6.91904 26.3436C7.46729 25.5864 8.04747 24.8558 8.61602 24.16C8.03618 23.2174 7.47026 22.3413 6.99029 21.5575C6.95233 21.4956 6.91448 21.4337 6.87652 21.3718C6.54021 21.8137 5.92423 22.6506 5.2297 23.7394ZM2.99518 20.6988C3.41267 21.247 4.09408 22.1382 4.85348 23.2047C5.64981 21.968 6.3237 21.086 6.56848 20.7713C6.35403 20.4935 5.65403 19.5636 4.81677 18.2378C4.07049 19.2846 3.40469 20.1585 2.99518 20.6988ZM12.7987 18.2821C13.1454 17.5287 13.4017 16.7785 13.4973 16.0479C13.59 15.3388 13.5319 14.6409 13.2549 13.9689C12.9972 13.3431 12.5496 12.7367 11.8602 12.1476C11.202 13.7544 10.3066 15.4256 9.31761 17.1136C9.53878 17.382 9.7571 17.6445 9.96984 17.9007C10.6428 18.7115 11.2602 19.4628 11.7431 20.1366C12.1299 19.5175 12.5108 18.907 12.7987 18.2821ZM12.9609 7.32241C12.9992 8.59029 12.6659 10.0285 12.0983 11.5412C12.9006 12.202 13.4193 12.8997 13.7207 13.6343C14.0497 14.4362 14.1189 15.2722 14.0079 16.1213C13.8996 16.9484 13.6203 17.7777 13.244 18.5982C12.9212 19.301 12.5816 20.0237 12.1295 20.6988C12.5782 21.3725 12.9137 22.0952 13.2313 22.7976C13.6027 23.6172 13.8752 24.4461 13.9776 25.2733C14.0826 26.1219 14.0079 26.9584 13.676 27.7606C13.3738 28.4914 12.8589 29.1863 12.0688 29.8449C12.6116 31.3361 12.9251 32.7541 12.8808 34.0069C12.7434 38.9198 9.98639 40.666 7.16097 40.7389C4.33634 40.6993 1.44321 38.9859 1.04373 34.3844C0.849932 32.7519 1.26069 30.8191 1.92648 28.9772C1.42554 28.4736 1.07577 27.9491 0.851181 27.4051C0.535036 26.6411 0.464355 25.8464 0.563767 25.0407C0.660222 24.2547 0.919351 23.4681 1.27209 22.6894C1.57421 22.0202 1.94541 21.3569 2.34078 20.6983C1.9421 20.0397 1.56703 19.3756 1.25989 18.7061C0.90248 17.9269 0.637526 17.1397 0.534685 16.3539C0.429807 15.5477 0.495473 14.753 0.808531 13.9899C1.03187 13.4442 1.3829 12.9183 1.88817 12.4144C1.20677 10.5422 0.777411 8.58309 0.964495 6.94437C1.3341 2.34457 4.28413 0.645084 7.16427 0.603813C10.0453 0.677574 12.8564 2.40988 12.9609 7.32241Z" fill="#B6864C"/>
</svg>
