<svg width="15" height="41" viewBox="0 0 15 41" fill="none" xmlns="http://www.w3.org/2000/svg">
<path d="M6.86727 14.0555C8.24891 11.6152 9.06395 9.0827 8.54134 7.66434C7.85366 5.86509 5.20483 5.686 4.93521 7.86499C4.70344 9.74438 5.48552 12.0269 6.86727 14.0555ZM1.58731 7.248C1.23457 10.3726 3.22729 14.5241 4.90067 17.2091C5.43068 16.4216 5.98987 15.5531 6.52674 14.6438C4.56138 11.8184 3.1321 8.98033 4.64405 6.51232C6.33796 3.93635 8.92486 5.24059 9.37531 7.40694C9.98467 9.07005 8.78327 11.9621 7.25741 14.613C7.79723 15.3651 8.37456 16.0958 8.94345 16.7928C10.6588 13.9843 12.4249 10.5129 12.3347 7.56118C12.2326 3.43575 9.62395 2.02505 7.0042 2.01022C4.38354 2.08443 1.7525 3.555 1.58731 7.248ZM1.25065 14.4415C0.98764 15.0807 0.931656 15.7444 1.01968 16.4182C1.1103 17.1122 1.35382 17.8248 1.68343 18.5403C1.96024 19.1425 2.29939 19.7472 2.66183 20.3502C3.06427 19.8145 3.72493 18.9209 4.47886 17.8281C3.6799 16.5151 2.80091 14.8831 2.11403 13.1441C1.71329 13.5667 1.43226 13.9999 1.25065 14.4415ZM1.69607 23.1262C1.37115 23.8413 1.13299 24.5534 1.04669 25.2474C0.963236 25.9208 1.02344 26.5845 1.28849 27.2245C1.47136 27.6657 1.75204 28.0977 2.15026 28.5203C2.83077 26.7914 3.71021 25.1754 4.51339 23.8788C3.74817 22.7685 3.07316 21.8595 2.66432 21.3176C2.30486 21.9203 1.96911 22.524 1.69607 23.1262ZM6.87012 27.616C5.49863 29.645 4.74643 31.9246 4.96508 33.8075C5.22092 35.9961 7.81192 35.8208 8.52447 34.0092C9.06942 32.6006 8.24345 30.0567 6.87012 27.616ZM1.65812 34.3531C1.8469 38.047 4.43119 39.5285 7.00374 39.6018C9.57551 39.5879 12.1357 38.1663 12.2626 34.04C12.3672 31.1022 10.6533 27.6531 8.956 24.8531C8.38209 25.5581 7.79975 26.2967 7.25742 27.0577C8.77439 29.7095 9.95219 32.6014 9.3475 34.2663C8.89535 36.4344 6.35654 37.741 4.68237 35.1609C3.18478 32.6895 4.57919 29.8532 6.53143 27.0269C5.9891 26.1041 5.42273 25.2226 4.88587 24.4253C3.22651 27.1096 1.29193 31.2391 1.65812 34.3531ZM13.2154 27.5621C13.4943 26.8896 13.5567 26.1918 13.4686 25.4826C13.3781 24.7519 13.1273 24.0022 12.7851 23.2492C12.5016 22.6252 12.1245 22.0145 11.7405 21.396C11.2547 22.0703 10.6352 22.8224 9.96232 23.6335C9.75586 23.8825 9.54381 24.1376 9.32937 24.3975C10.3124 26.0898 11.1948 27.764 11.8366 29.3724C12.5143 28.7866 12.9575 28.1837 13.2154 27.5621ZM7.51779 20.2309C7.40322 20.4183 7.28819 20.6059 7.17362 20.7934C7.17144 20.7972 7.16815 20.8014 7.16472 20.8065C7.16598 20.8081 7.16724 20.8098 7.16816 20.8116C7.28273 20.9991 7.39776 21.1865 7.51233 21.3737C8.01715 22.1983 8.51695 23.0175 8.99772 23.8308C9.16416 23.6289 9.32903 23.4304 9.49034 23.2353C10.2282 22.3458 10.9007 21.5288 11.3857 20.8339C10.9032 20.1398 10.2332 19.3232 9.49581 18.4345C9.3281 18.2318 9.15664 18.0253 8.98347 17.8155C8.50772 18.6153 8.0143 19.4206 7.51779 20.2309ZM6.88154 20.0978C6.9195 20.0357 6.95746 19.9743 6.99531 19.9123C7.46855 19.1399 8.0265 18.2778 8.60074 17.3508C8.03744 16.6626 7.46216 15.9404 6.91698 15.192C6.37887 16.0912 5.80109 16.9638 5.24782 17.7598C5.93893 18.8345 6.54783 19.6599 6.88154 20.0978ZM5.2297 23.8746C5.79016 24.6807 6.37592 25.566 6.91904 26.4787C7.46729 25.7216 8.04747 24.9909 8.61602 24.2951C8.03618 23.3525 7.47026 22.4764 6.99029 21.6926C6.95233 21.6307 6.91448 21.5688 6.87652 21.5069C6.54021 21.9489 5.92423 22.7857 5.2297 23.8746ZM2.99518 20.8339C3.41267 21.3822 4.09408 22.2733 4.85348 23.3399C5.64981 22.1031 6.3237 21.2212 6.56848 20.9064C6.35403 20.6287 5.65403 19.6987 4.81677 18.373C4.07049 19.4198 3.40469 20.2936 2.99518 20.8339ZM12.7987 18.4172C13.1454 17.6638 13.4017 16.9137 13.4973 16.183C13.59 15.4739 13.5319 14.7761 13.2549 14.104C12.9972 13.4782 12.5496 12.8718 11.8602 12.2827C11.202 13.8896 10.3066 15.5608 9.31761 17.2487C9.53878 17.5171 9.7571 17.7797 9.96984 18.0358C10.6428 18.8466 11.2602 19.5979 11.7431 20.2717C12.1299 19.6527 12.5108 19.0422 12.7987 18.4172ZM12.9609 7.45754C12.9992 8.72542 12.6659 10.1636 12.0983 11.6763C12.9006 12.3371 13.4193 13.0348 13.7207 13.7694C14.0497 14.5713 14.1189 15.4073 14.0079 16.2564C13.8996 17.0836 13.6203 17.9128 13.244 18.7333C12.9212 19.4362 12.5816 20.1589 12.1295 20.8339C12.5782 21.5077 12.9137 22.2304 13.2313 22.9327C13.6027 23.7523 13.8752 24.5813 13.9776 25.4084C14.0826 26.2571 14.0079 27.0935 13.676 27.8958C13.3738 28.6266 12.8589 29.3214 12.0688 29.98C12.6116 31.4713 12.9251 32.8893 12.8808 34.1421C12.7434 39.0549 9.98639 40.8012 7.16097 40.874C4.33634 40.8345 1.44321 39.1211 1.04373 34.5195C0.849932 32.8871 1.26069 30.9542 1.92648 29.1123C1.42554 28.6088 1.07577 28.0842 0.851181 27.5402C0.535036 26.7762 0.464355 25.9815 0.563767 25.1758C0.660222 24.3899 0.919351 23.6032 1.27209 22.8246C1.57421 22.1553 1.94541 21.4921 2.34078 20.8334C1.9421 20.1748 1.56703 19.5107 1.25989 18.8412C0.90248 18.0621 0.637526 17.2749 0.534685 16.489C0.429807 15.6829 0.495473 14.8881 0.808531 14.1251C1.03187 13.5793 1.3829 13.0534 1.88817 12.5495C1.20677 10.6773 0.777411 8.71822 0.964495 7.07951C1.3341 2.4797 4.28413 0.780216 7.16427 0.738945C10.0453 0.812706 12.8564 2.54501 12.9609 7.45754Z" fill="#062329"/>
</svg>
