<svg width="22" height="23" viewBox="0 0 22 23" fill="none" xmlns="http://www.w3.org/2000/svg">
<path fill-rule="evenodd" clip-rule="evenodd" d="M7.48634 3.04808C8.39517 3.00625 8.68494 2.99695 11 2.99695C13.3151 2.99695 13.6048 3.00702 14.5129 3.04808C15.4209 3.08915 16.0407 3.23403 16.5831 3.444C17.151 3.65861 17.6662 3.9941 18.0924 4.42798C18.5263 4.85333 18.861 5.36779 19.0748 5.93648C19.2855 6.47883 19.4297 7.09866 19.4715 8.00516C19.5133 8.91553 19.5226 9.2053 19.5226 11.5196C19.5226 13.8346 19.5126 14.1244 19.4715 15.0332C19.4304 15.9397 19.2855 16.5596 19.0748 17.1019C18.861 17.6707 18.5257 18.186 18.0924 18.612C17.6662 19.0458 17.151 19.3806 16.5831 19.5944C16.0407 19.8051 15.4209 19.9492 14.5144 19.9911C13.6048 20.0329 13.3151 20.0422 11 20.0422C8.68494 20.0422 8.39517 20.0322 7.48634 19.9911C6.57984 19.95 5.96002 19.8051 5.41767 19.5944C4.84891 19.3805 4.3336 19.0453 3.90761 18.612C3.47402 18.1864 3.13849 17.6713 2.92441 17.1027C2.71444 16.5603 2.57033 15.9405 2.52849 15.034C2.48665 14.1236 2.47736 13.8339 2.47736 11.5196C2.47736 9.20453 2.48743 8.91476 2.52849 8.00671C2.56956 7.09866 2.71444 6.47883 2.92441 5.93648C3.13881 5.36785 3.4746 4.8528 3.90838 4.4272C4.33377 3.99371 4.84856 3.65818 5.41689 3.444C5.95924 3.23403 6.57984 3.08992 7.48634 3.04808ZM14.4431 4.58216C13.5444 4.5411 13.2748 4.53257 10.9992 4.53257C8.72367 4.53257 8.45405 4.5411 7.5553 4.58216C6.72395 4.62012 6.27303 4.75881 5.97241 4.8758C5.57495 5.03076 5.2906 5.21438 4.99231 5.51268C4.70955 5.78776 4.49194 6.12265 4.35544 6.49278C4.23844 6.7934 4.09976 7.24432 4.06179 8.07567C4.02073 8.97442 4.01221 9.24404 4.01221 11.5196C4.01221 13.7951 4.02073 14.0648 4.06179 14.9635C4.09976 15.7949 4.23844 16.2458 4.35544 16.5464C4.4918 16.916 4.70951 17.2514 4.99231 17.5265C5.26736 17.8093 5.60284 18.027 5.97241 18.1634C6.27303 18.2804 6.72395 18.419 7.5553 18.457C8.45405 18.4981 8.7229 18.5066 10.9992 18.5066C13.2755 18.5066 13.5444 18.4981 14.4431 18.457C15.2745 18.419 15.7254 18.2804 16.026 18.1634C16.4235 18.0084 16.7078 17.8248 17.0061 17.5265C17.2889 17.2514 17.5066 16.916 17.643 16.5464C17.76 16.2458 17.8987 15.7949 17.9366 14.9635C17.9777 14.0648 17.9862 13.7951 17.9862 11.5196C17.9862 9.24404 17.9777 8.97442 17.9366 8.07567C17.8987 7.24432 17.76 6.7934 17.643 6.49278C17.488 6.09531 17.3044 5.81097 17.0061 5.51268C16.731 5.22993 16.3961 5.01233 16.026 4.8758C15.7254 4.75881 15.2745 4.62012 14.4431 4.58216ZM9.91065 14.1469C10.5186 14.4 11.1955 14.4341 11.8259 14.2435C12.4562 14.0529 13.0008 13.6494 13.3667 13.1019C13.7325 12.5544 13.897 11.8968 13.8319 11.2415C13.7668 10.5862 13.4762 9.97387 13.0098 9.50902C12.7125 9.21187 12.3529 8.98434 11.9571 8.84282C11.5613 8.70129 11.139 8.64929 10.7207 8.69055C10.3023 8.73181 9.89837 8.86531 9.53782 9.08144C9.17728 9.29757 8.86914 9.59095 8.63558 9.94046C8.40203 10.29 8.24888 10.6869 8.18715 11.1027C8.12542 11.5185 8.15665 11.9428 8.27859 12.3451C8.40053 12.7474 8.61015 13.1177 8.89236 13.4292C9.17457 13.7408 9.52234 13.9859 9.91065 14.1469ZM7.9024 8.42199C8.30918 8.01521 8.7921 7.69254 9.32359 7.47239C9.85507 7.25224 10.4247 7.13893 11 7.13893C11.5753 7.13893 12.1449 7.25224 12.6764 7.47239C13.2079 7.69254 13.6908 8.01521 14.0976 8.42199C14.5044 8.82878 14.827 9.3117 15.0472 9.84318C15.2673 10.3747 15.3806 10.9443 15.3806 11.5196C15.3806 12.0949 15.2673 12.6645 15.0472 13.196C14.827 13.7275 14.5044 14.2104 14.0976 14.6172C13.2761 15.4387 12.1618 15.9002 11 15.9002C9.83817 15.9002 8.72393 15.4387 7.9024 14.6172C7.08087 13.7956 6.61934 12.6814 6.61934 11.5196C6.61934 10.3578 7.08087 9.24353 7.9024 8.42199ZM16.3522 7.79132C16.453 7.69623 16.5337 7.58188 16.5895 7.45504C16.6453 7.3282 16.6751 7.19146 16.6772 7.05289C16.6792 6.91433 16.6534 6.77677 16.6013 6.64836C16.5492 6.51995 16.4719 6.4033 16.3739 6.30531C16.2759 6.20732 16.1592 6.12999 16.0308 6.0779C15.9024 6.0258 15.7649 6 15.6263 6.00202C15.4877 6.00404 15.351 6.03384 15.2241 6.08966C15.0973 6.14547 14.983 6.22617 14.8879 6.32698C14.7029 6.52302 14.6017 6.78342 14.6056 7.05289C14.6095 7.32237 14.7183 7.57971 14.9089 7.77028C15.0995 7.96085 15.3568 8.06964 15.6263 8.07357C15.8958 8.0775 16.1562 7.97625 16.3522 7.79132Z" fill="#060A0A"/>
</svg>
