<svg width="206" height="133" viewBox="0 0 206 133" fill="none" xmlns="http://www.w3.org/2000/svg">
<path d="M36.3298 127.907C36.3298 126.466 36.3298 126.202 36.3102 125.899C36.2906 125.596 36.2068 125.425 35.868 125.364C35.7352 125.344 35.601 125.335 35.4668 125.337C35.3544 125.337 35.2885 125.318 35.2885 125.252C35.2885 125.186 35.3616 125.166 35.5149 125.166C36.0588 125.166 36.7078 125.195 36.9949 125.195C37.4157 125.195 38.0113 125.166 38.4838 125.166C39.7677 125.166 40.2295 125.564 40.3936 125.701C40.5504 125.845 40.6767 126.019 40.765 126.212C40.8532 126.406 40.9015 126.615 40.9071 126.828C40.9071 128.172 39.8372 129.119 38.3804 129.119C38.3092 129.124 38.2377 129.124 38.1664 129.119C38.1147 129.11 38.0416 129.1 38.0416 129.034C38.0416 128.968 38.1147 128.93 38.3305 128.93C38.9047 128.93 39.7071 128.333 39.7071 127.368C39.7227 127.1 39.6761 126.831 39.5709 126.584C39.4658 126.337 39.3049 126.117 39.1008 125.942C38.8123 125.702 38.4489 125.571 38.0737 125.571C37.9389 125.566 37.804 125.58 37.6725 125.61C37.6208 125.628 37.5905 125.685 37.5905 125.788V129.579C37.5905 130.451 37.5905 131.2 37.6422 131.607C37.6725 131.871 37.7349 132.079 38.0416 132.118C38.2156 132.14 38.3906 132.153 38.5659 132.156C38.68 132.156 38.7299 132.184 38.7299 132.231C38.7299 132.277 38.6479 132.325 38.5356 132.325C37.858 132.325 37.2107 132.299 36.9432 132.299C36.7078 132.299 36.0516 132.325 35.6487 132.325C35.5149 132.325 35.4436 132.299 35.4436 132.231C35.4436 132.163 35.4846 132.156 35.6076 132.156C35.7316 132.156 35.8553 132.143 35.9768 132.118C36.1836 132.079 36.2335 131.871 36.2763 131.598C36.3262 131.2 36.3262 130.451 36.3262 129.579L36.3298 127.907Z" fill="white"/>
<path d="M52.8489 128.171C52.8575 128.171 52.866 128.169 52.8739 128.166C52.8819 128.163 52.889 128.158 52.8949 128.152C52.9008 128.145 52.9053 128.138 52.9082 128.13C52.911 128.122 52.912 128.113 52.9113 128.105V127.907C52.9113 126.466 52.9113 126.202 52.8899 125.899C52.8685 125.596 52.7865 125.425 52.4477 125.364C52.3155 125.344 52.1819 125.335 52.0482 125.337C51.9341 125.337 51.8699 125.318 51.8699 125.252C51.8699 125.186 51.9413 125.166 52.0839 125.166C52.6402 125.166 53.2857 125.195 53.5639 125.195C53.81 125.195 54.4555 125.166 54.8585 125.166C55.0011 125.166 55.0742 125.186 55.0742 125.252C55.0742 125.318 55.0118 125.337 54.8959 125.337C54.7961 125.339 54.6966 125.348 54.5981 125.364C54.32 125.412 54.2415 125.573 54.2183 125.899C54.1987 126.202 54.1987 126.466 54.1987 127.907V129.579C54.1987 130.451 54.1987 131.2 54.2486 131.607C54.2807 131.871 54.3414 132.079 54.6498 132.118C54.8232 132.14 54.9976 132.153 55.1723 132.156C55.2864 132.156 55.3381 132.184 55.3381 132.231C55.3381 132.277 55.2561 132.325 55.1331 132.325C54.4644 132.325 53.8171 132.299 53.5282 132.299C53.2911 132.299 52.6456 132.325 52.2444 132.325C52.1 132.325 52.0286 132.299 52.0286 132.231C52.0286 132.163 52.0696 132.156 52.1927 132.156C52.3172 132.155 52.4414 132.143 52.5636 132.118C52.7686 132.079 52.8203 131.871 52.8596 131.598C52.9115 130.926 52.9293 130.253 52.9131 129.579V128.747C52.9128 128.739 52.911 128.731 52.9078 128.724C52.9045 128.717 52.8998 128.71 52.894 128.705C52.8881 128.699 52.8813 128.695 52.8739 128.693C52.8664 128.69 52.8585 128.689 52.8507 128.689H48.9278C48.8957 128.689 48.8654 128.689 48.8654 128.747V129.579C48.8654 130.451 48.8654 131.2 48.9171 131.607C48.9474 131.871 49.0098 132.079 49.3165 132.118C49.4905 132.14 49.6654 132.153 49.8407 132.156C49.9531 132.156 50.0048 132.184 50.0048 132.231C50.0048 132.277 49.9228 132.325 49.7997 132.325C49.1328 132.325 48.4856 132.299 48.1949 132.299C47.9577 132.299 47.3033 132.325 46.9003 132.325C46.7666 132.325 46.6953 132.299 46.6953 132.231C46.6953 132.163 46.7363 132.156 46.8593 132.156C46.9833 132.156 47.1069 132.143 47.2284 132.118C47.4335 132.079 47.4852 131.871 47.5262 131.598C47.5779 131.2 47.5779 130.451 47.5779 129.579V127.914C47.5779 126.473 47.5779 126.209 47.5583 125.906C47.5387 125.603 47.4549 125.432 47.1161 125.371C46.9833 125.351 46.8491 125.342 46.7149 125.344C46.6026 125.344 46.5366 125.325 46.5366 125.259C46.5366 125.193 46.6097 125.173 46.7523 125.173C47.3069 125.173 47.9542 125.202 48.2323 125.202C48.4784 125.202 49.1239 125.173 49.5251 125.173C49.6695 125.173 49.7409 125.193 49.7409 125.259C49.7409 125.325 49.6802 125.344 49.5626 125.344C49.4628 125.346 49.3633 125.355 49.2648 125.371C48.9866 125.419 48.9081 125.58 48.8832 125.906C48.8636 126.209 48.8636 126.473 48.8636 127.914V128.112C48.8625 128.12 48.8633 128.129 48.8661 128.137C48.8688 128.146 48.8733 128.153 48.8792 128.159C48.8852 128.166 48.8925 128.171 48.9006 128.174C48.9086 128.177 48.9173 128.178 48.926 128.178L52.8489 128.171Z" fill="white"/>
<path d="M60.864 128.74C60.864 127.119 62.0248 125.027 65.1061 125.027C67.6631 125.027 69.2554 126.4 69.2554 128.568C69.2554 130.737 67.6114 132.452 65.0026 132.452C62.0569 132.452 60.864 130.416 60.864 128.74ZM67.8182 128.918C67.8182 126.796 66.4916 125.48 64.8083 125.48C63.6279 125.48 62.2816 126.086 62.2816 128.444C62.2816 130.414 63.462 131.976 65.4342 131.976C66.1528 131.978 67.8182 131.657 67.8182 128.92V128.918Z" fill="white"/>
<path d="M77.2099 125.69L75.68 125.728C75.0844 125.747 74.8383 125.794 74.685 126.002C74.606 126.101 74.5456 126.214 74.5067 126.334C74.4853 126.409 74.455 126.448 74.3925 126.448C74.3301 126.448 74.2998 126.4 74.2998 126.297C74.2998 126.145 74.496 125.282 74.5156 125.205C74.5459 125.084 74.578 125.027 74.6386 125.027C74.7824 125.078 74.9304 125.116 75.0808 125.141C75.3786 125.168 75.7691 125.188 76.1079 125.188H80.1752C80.4137 125.187 80.652 125.172 80.8885 125.141C80.9795 125.119 81.0718 125.103 81.1649 125.093C81.2362 125.093 81.2469 125.15 81.2469 125.293C81.2469 125.491 81.2166 126.145 81.2166 126.391C81.2059 126.486 81.1845 126.543 81.1239 126.543C81.0632 126.543 81.0204 126.495 81.0097 126.354L81.0008 126.249C80.9794 126.002 80.703 125.737 79.7883 125.714L78.4937 125.687V129.579C78.4937 130.451 78.4937 131.2 78.5455 131.607C78.5758 131.871 78.6382 132.079 78.9467 132.119C79.12 132.14 79.2944 132.153 79.4691 132.156C79.5832 132.156 79.6332 132.185 79.6332 132.231C79.6332 132.277 79.5511 132.325 79.4388 132.325C78.7612 132.325 78.1139 132.299 77.834 132.299C77.5986 132.299 76.9424 132.325 76.5394 132.325C76.4075 132.325 76.3344 132.299 76.3344 132.231C76.3344 132.163 76.3754 132.156 76.4984 132.156C76.6224 132.156 76.746 132.143 76.8675 132.119C77.0744 132.079 77.135 131.871 77.1671 131.598C77.217 131.2 77.217 130.451 77.217 129.579L77.2099 125.69Z" fill="white"/>
<path d="M86.4057 128.74C86.4057 127.119 87.5683 125.027 90.6478 125.027C93.2048 125.027 94.7989 126.4 94.7989 128.568C94.7989 130.737 93.1549 132.452 90.5461 132.452C87.5986 132.452 86.4057 130.416 86.4057 128.74ZM93.3599 128.918C93.3599 126.796 92.035 125.48 90.35 125.48C89.1696 125.48 87.8251 126.086 87.8251 128.444C87.8251 130.414 89.0055 131.976 90.9759 131.976C91.6962 131.978 93.3599 131.657 93.3599 128.92V128.918Z" fill="white"/>
<path d="M107.805 131.685C107.805 131.94 107.794 131.96 107.673 132.026C107.004 132.349 105.997 132.452 105.196 132.452C102.68 132.452 100.451 131.354 100.451 128.74C100.441 128.11 100.602 127.49 100.916 126.945C101.23 126.4 101.685 125.95 102.235 125.642C103.219 125.093 104.134 125.027 104.997 125.027C105.605 125.036 106.212 125.087 106.814 125.179C107.082 125.228 107.353 125.263 107.625 125.282C107.75 125.293 107.769 125.33 107.769 125.396C107.712 125.912 107.688 126.431 107.698 126.949C107.698 127.101 107.668 127.149 107.584 127.149C107.5 127.149 107.493 127.101 107.482 127.024C107.458 126.729 107.332 126.452 107.126 126.24C106.817 125.937 105.995 125.5 104.834 125.5C104.271 125.5 103.52 125.539 102.802 126.088C102.227 126.532 101.857 127.244 101.857 128.406C101.857 130.442 103.263 131.972 105.432 131.972C105.726 131.991 106.022 131.955 106.304 131.867C106.372 131.838 106.428 131.788 106.463 131.723C106.498 131.658 106.511 131.583 106.498 131.511V130.619C106.498 130.145 106.498 129.785 106.489 129.501C106.478 129.178 106.386 129.028 106.047 128.966C105.914 128.945 105.78 128.936 105.646 128.938C105.553 128.938 105.492 128.92 105.492 128.863C105.492 128.806 105.564 128.768 105.708 128.768C106.243 128.768 106.89 128.797 107.197 128.797C107.504 128.797 108.06 128.768 108.399 128.768C108.533 128.768 108.606 128.786 108.606 128.863C108.606 128.939 108.543 128.938 108.47 128.938C108.377 128.94 108.285 128.95 108.194 128.966C107.917 129.014 107.814 129.175 107.803 129.501C107.793 129.785 107.793 130.164 107.793 130.639L107.805 131.685Z" fill="white"/>
<path d="M115.196 127.907C115.196 126.466 115.196 126.202 115.175 125.899C115.153 125.596 115.071 125.425 114.732 125.364C114.6 125.344 114.467 125.335 114.333 125.337C114.219 125.337 114.155 125.318 114.155 125.252C114.155 125.186 114.226 125.166 114.379 125.166C114.925 125.166 115.572 125.195 115.788 125.195C116.145 125.195 116.919 125.166 117.236 125.166C117.883 125.166 118.572 125.223 119.124 125.573C119.336 125.717 119.51 125.911 119.632 126.137C119.753 126.362 119.819 126.614 119.823 126.871C119.823 127.571 119.506 128.217 118.468 128.993C119.381 130.063 120.091 130.897 120.697 131.489C121.271 132.038 121.694 132.104 121.847 132.133C121.942 132.15 122.038 132.16 122.134 132.161C122.216 132.161 122.259 132.19 122.259 132.236C122.259 132.313 122.186 132.331 122.063 132.331H121.088C120.512 132.331 120.255 132.284 119.987 132.152C119.547 131.933 119.156 131.489 118.58 130.76C118.17 130.239 117.698 129.595 117.564 129.453C117.541 129.429 117.513 129.411 117.482 129.4C117.452 129.388 117.419 129.384 117.386 129.387L116.494 129.367C116.442 129.367 116.412 129.387 116.412 129.444V129.576C116.412 130.457 116.412 131.205 116.462 131.603C116.494 131.876 116.555 132.085 116.863 132.124C117.017 132.142 117.243 132.161 117.366 132.161C117.448 132.161 117.489 132.19 117.489 132.236C117.489 132.283 117.418 132.331 117.284 132.331C116.689 132.331 115.929 132.304 115.774 132.304C115.579 132.304 114.932 132.331 114.526 132.331C114.39 132.331 114.319 132.304 114.319 132.236C114.319 132.168 114.362 132.161 114.483 132.161C114.607 132.161 114.732 132.148 114.854 132.124C115.059 132.085 115.11 131.876 115.152 131.603C115.203 131.205 115.203 130.457 115.203 129.585L115.196 127.907ZM116.409 128.654C116.409 128.759 116.428 128.796 116.5 128.832C116.754 128.898 117.017 128.93 117.281 128.927C117.691 128.927 117.816 128.887 118.01 128.766C118.318 128.558 118.616 128.121 118.616 127.34C118.616 125.995 117.65 125.606 117.043 125.606C116.864 125.599 116.685 125.612 116.508 125.644C116.437 125.662 116.418 125.701 116.418 125.776L116.409 128.654Z" fill="white"/>
<path d="M127.885 129.904C127.833 129.904 127.812 129.924 127.792 129.981L127.237 131.277C127.152 131.46 127.1 131.656 127.082 131.857C127.082 132.035 127.175 132.149 127.494 132.149H127.648C127.771 132.149 127.803 132.167 127.803 132.224C127.803 132.281 127.74 132.318 127.624 132.318C127.295 132.318 126.854 132.292 126.535 132.292C126.423 132.292 125.857 132.318 125.322 132.318C125.19 132.318 125.128 132.301 125.128 132.224C125.128 132.147 125.169 132.149 125.251 132.149C125.358 132.148 125.464 132.141 125.57 132.129C126.043 132.072 126.237 131.751 126.442 131.277L129.021 125.405C129.144 125.131 129.199 125.027 129.308 125.027C129.416 125.027 129.461 125.111 129.564 125.33C129.811 125.851 131.455 129.64 132.113 131.079C132.503 131.931 132.801 132.065 133.017 132.111C133.159 132.137 133.303 132.149 133.448 132.149C133.53 132.149 133.58 132.16 133.58 132.224C133.58 132.288 133.487 132.318 133.109 132.318C132.731 132.318 131.99 132.318 131.167 132.301C130.989 132.301 130.859 132.301 130.859 132.224C130.859 132.147 130.9 132.149 131.002 132.14C131.024 132.134 131.044 132.123 131.061 132.108C131.079 132.093 131.092 132.074 131.101 132.053C131.11 132.032 131.114 132.009 131.113 131.986C131.112 131.963 131.105 131.941 131.094 131.921L130.274 129.97C130.266 129.949 130.252 129.932 130.234 129.92C130.215 129.908 130.193 129.902 130.171 129.904H127.885ZM129.978 129.431C130.032 129.431 130.041 129.403 130.032 129.374L129.106 127.044C129.095 127.006 129.087 126.96 129.054 126.96C129.022 126.96 129.005 127.006 128.994 127.044L128.049 129.362C128.038 129.401 128.049 129.43 128.09 129.43L129.978 129.431Z" fill="white"/>
<path d="M139.186 127.907C139.186 126.466 139.186 126.202 139.167 125.899C139.147 125.596 139.063 125.425 138.724 125.364C138.592 125.344 138.458 125.335 138.323 125.337C138.211 125.337 138.145 125.318 138.145 125.252C138.145 125.186 138.218 125.166 138.371 125.166C138.915 125.166 139.563 125.195 139.851 125.195C140.272 125.195 140.868 125.166 141.34 125.166C142.624 125.166 143.086 125.564 143.25 125.701C143.407 125.845 143.533 126.019 143.621 126.212C143.71 126.406 143.758 126.615 143.764 126.828C143.764 128.172 142.694 129.119 141.237 129.119C141.165 129.124 141.093 129.124 141.021 129.119C140.971 129.11 140.898 129.1 140.898 129.034C140.898 128.968 140.971 128.93 141.185 128.93C141.761 128.93 142.562 128.333 142.562 127.368C142.578 127.1 142.531 126.831 142.426 126.584C142.321 126.336 142.16 126.116 141.956 125.942C141.667 125.702 141.304 125.571 140.928 125.571C140.794 125.567 140.66 125.58 140.529 125.61C140.477 125.628 140.447 125.685 140.447 125.788V129.579C140.447 130.451 140.447 131.2 140.497 131.607C140.529 131.871 140.59 132.079 140.898 132.118C141.072 132.14 141.247 132.153 141.422 132.156C141.535 132.156 141.586 132.184 141.586 132.231C141.586 132.277 141.504 132.325 141.392 132.325C140.714 132.325 140.065 132.299 139.8 132.299C139.563 132.299 138.908 132.325 138.505 132.325C138.371 132.325 138.3 132.299 138.3 132.231C138.3 132.163 138.341 132.156 138.464 132.156C138.588 132.156 138.712 132.143 138.833 132.118C139.038 132.079 139.09 131.871 139.131 131.598C139.183 131.2 139.183 130.451 139.183 129.579L139.186 127.907Z" fill="white"/>
<path d="M155.705 128.171C155.714 128.171 155.722 128.169 155.73 128.166C155.738 128.163 155.745 128.158 155.751 128.152C155.757 128.145 155.762 128.138 155.764 128.13C155.767 128.122 155.768 128.113 155.768 128.105V127.907C155.768 126.466 155.768 126.202 155.746 125.899C155.725 125.596 155.643 125.425 155.304 125.364C155.172 125.344 155.038 125.335 154.905 125.337C154.79 125.337 154.726 125.318 154.726 125.252C154.726 125.186 154.798 125.166 154.942 125.166C155.497 125.166 156.142 125.195 156.42 125.195C156.666 125.195 157.312 125.166 157.715 125.166C157.857 125.166 157.931 125.186 157.931 125.252C157.931 125.318 157.868 125.337 157.752 125.337C157.652 125.339 157.553 125.348 157.454 125.364C157.176 125.412 157.098 125.573 157.075 125.899C157.055 126.202 157.055 126.466 157.055 127.907V129.579C157.055 130.451 157.055 131.2 157.105 131.607C157.137 131.871 157.198 132.079 157.506 132.118C157.68 132.14 157.854 132.153 158.029 132.156C158.143 132.156 158.194 132.184 158.194 132.231C158.194 132.277 158.112 132.325 157.989 132.325C157.321 132.325 156.673 132.299 156.385 132.299C156.147 132.299 155.502 132.325 155.101 132.325C154.958 132.325 154.885 132.299 154.885 132.231C154.885 132.163 154.926 132.156 155.049 132.156C155.174 132.156 155.298 132.143 155.42 132.118C155.625 132.079 155.677 131.871 155.718 131.598C155.769 131.2 155.769 130.451 155.769 129.579V128.747C155.769 128.739 155.767 128.731 155.764 128.724C155.761 128.717 155.756 128.71 155.75 128.705C155.744 128.699 155.738 128.695 155.73 128.693C155.723 128.69 155.715 128.689 155.707 128.689H151.784C151.752 128.689 151.722 128.689 151.722 128.747V129.579C151.722 130.451 151.722 131.2 151.773 131.607C151.804 131.871 151.866 132.079 152.173 132.118C152.347 132.14 152.522 132.153 152.697 132.156C152.811 132.156 152.861 132.184 152.861 132.231C152.861 132.277 152.779 132.325 152.656 132.325C151.989 132.325 151.342 132.299 151.051 132.299C150.816 132.299 150.16 132.325 149.758 132.325C149.625 132.325 149.553 132.299 149.553 132.231C149.553 132.163 149.594 132.156 149.717 132.156C149.841 132.156 149.965 132.143 150.087 132.118C150.292 132.079 150.343 131.871 150.384 131.598C150.436 131.2 150.436 130.451 150.436 129.579V127.914C150.436 126.473 150.436 126.209 150.416 125.906C150.397 125.603 150.313 125.432 149.974 125.371C149.841 125.351 149.707 125.342 149.573 125.344C149.461 125.344 149.395 125.325 149.395 125.259C149.395 125.193 149.468 125.173 149.61 125.173C150.165 125.173 150.812 125.202 151.09 125.202C151.337 125.202 151.982 125.173 152.385 125.173C152.528 125.173 152.599 125.193 152.599 125.259C152.599 125.325 152.538 125.344 152.421 125.344C152.321 125.346 152.221 125.355 152.123 125.371C151.845 125.419 151.766 125.58 151.741 125.906C151.722 126.209 151.722 126.473 151.722 127.914V128.112C151.721 128.12 151.721 128.129 151.724 128.137C151.727 128.146 151.731 128.153 151.737 128.159C151.743 128.166 151.751 128.171 151.759 128.174C151.767 128.177 151.775 128.178 151.784 128.178L155.705 128.171Z" fill="white"/>
<path d="M166.094 129.866C166.108 129.52 166.026 129.175 165.858 128.871C165.787 128.72 164.41 126.637 164.05 126.145C163.864 125.867 163.621 125.631 163.337 125.453C163.203 125.383 163.056 125.341 162.905 125.33C162.823 125.33 162.752 125.311 162.752 125.245C162.752 125.179 162.823 125.159 162.948 125.159C163.127 125.159 163.902 125.188 164.241 125.188C164.457 125.188 164.878 125.159 165.341 125.159C165.443 125.159 165.495 125.188 165.495 125.245C165.495 125.302 165.423 125.311 165.27 125.348C165.229 125.356 165.192 125.378 165.165 125.411C165.139 125.443 165.125 125.484 165.125 125.526C165.146 125.636 165.189 125.741 165.25 125.835C165.393 126.118 166.832 128.401 166.996 128.666C167.099 128.438 168.392 126.348 168.537 126.061C168.621 125.91 168.67 125.742 168.681 125.569C168.683 125.509 168.661 125.451 168.621 125.407C168.581 125.363 168.525 125.336 168.465 125.332C168.373 125.312 168.287 125.295 168.287 125.237C168.287 125.18 168.339 125.152 168.465 125.152C168.804 125.152 169.132 125.18 169.43 125.18C169.656 125.18 170.334 125.152 170.53 125.152C170.642 125.152 170.708 125.171 170.708 125.229C170.708 125.286 170.626 125.323 170.514 125.323C170.357 125.33 170.203 125.369 170.061 125.437C169.842 125.544 169.651 125.702 169.507 125.899C169.168 126.279 167.723 128.504 167.545 128.912C167.422 129.212 167.37 129.536 167.392 129.859V130.649C167.392 130.801 167.392 131.198 167.422 131.596C167.444 131.869 167.536 132.078 167.845 132.117C168.015 132.138 168.187 132.151 168.358 132.154C168.471 132.154 168.522 132.183 168.522 132.229C168.522 132.275 168.44 132.324 168.307 132.324C167.659 132.324 167.012 132.297 166.736 132.297C166.459 132.297 165.83 132.324 165.45 132.324C165.306 132.324 165.224 132.306 165.224 132.229C165.224 132.183 165.277 132.154 165.389 132.154C165.509 132.153 165.629 132.141 165.746 132.117C165.953 132.078 166.046 131.869 166.065 131.596C166.095 131.198 166.095 130.801 166.095 130.649L166.094 129.866Z" fill="white"/>
<path d="M5.28537 88.7833H0.310425V113.799H2.73014V103.457H4.2565C16.5851 103.457 16.5851 97.8131 16.5851 95.9676C16.5851 92.6866 14.6254 88.7833 5.28537 88.7833ZM4.2565 102.852H2.73014V89.3914H4.8592C9.44541 89.3914 14.3437 91.1174 14.3437 95.9622C14.3437 100.534 10.9504 102.852 4.2565 102.852Z" fill="white"/>
<path d="M33.4182 89.8888C34.5344 89.8888 35.253 90.6502 35.615 92.2176C35.9413 93.6227 35.9395 95.4843 35.9395 97.1266V113.799H38.3236V97.3833C38.3236 94.5945 37.6923 92.4316 36.4513 90.9552C35.2601 89.4894 33.5038 88.7458 31.2517 88.7458C30.7594 88.7484 30.268 88.7842 29.7806 88.8528L29.6861 88.8653V91.4384L29.8537 91.326C31.3016 90.3721 32.5016 89.8888 33.4182 89.8888Z" fill="white"/>
<path d="M63.5547 96.5272C59.4624 96.5272 57.7346 99.0236 57.1051 100.347C55.9318 96.907 52.2746 96.5272 50.7268 96.5272C48.7137 96.5272 47.1089 97.1067 45.8214 98.2979C45.3736 98.7176 44.9811 99.1928 44.6535 99.7119V97.0247H42.2356V113.799H44.6535V102.54C44.8318 99.3178 47.5903 97.6328 50.2293 97.6328C52.7061 97.6328 55.2025 99.1484 55.2025 102.535V113.799H57.6222V102.611C57.8005 99.3196 60.5608 97.5971 63.1981 97.5971C65.6731 97.5971 68.1712 99.0807 68.1712 102.392V113.804H70.5909V102.57C70.5909 96.9641 65.2041 96.5272 63.5547 96.5272Z" fill="white"/>
<path d="M92.7928 89.1023H93.4686C96.2503 89.1023 98.0655 89.7709 99.0997 90.3326C99.7302 90.673 100.278 91.1478 100.705 91.7235L100.737 91.768H103.472L103.328 91.5897C102.8 90.9518 102.163 90.4132 101.446 89.9992C99.4706 88.9632 97.0028 88.4603 93.9001 88.4603C87.6021 88.4603 81.9531 91.4667 79.5209 96.1278C78.691 97.7234 78.2718 99.5006 78.3013 101.299C78.3013 108.694 84.5333 114.269 92.7981 114.269C97.1882 114.269 100.926 112.971 103.319 110.614L103.426 110.507L102.866 110.227L102.809 110.282C101.045 112.048 97.1026 113.483 94.0053 113.483C85.5372 113.483 80.9671 107.189 80.9671 101.263V100.907C81.1436 93.9613 87.2473 89.3751 92.7928 89.1023Z" fill="white"/>
<path d="M146.798 92.8328H144.416V97.0606H142.99V97.6615H144.416V111.16C144.416 113.567 146.602 113.835 147.544 113.835C148.485 113.835 149.263 113.628 149.407 113.435L149.459 113.367L149.177 113.029L148.837 113.157L148.701 113.189C148.532 113.234 148.357 113.259 148.182 113.262C147.588 113.262 146.798 113.011 146.798 110.848V97.6615H149.926V97.0534H146.798V92.8328Z" fill="white"/>
<path d="M166.429 107.825C166.429 111.054 163.483 112.796 160.712 112.796C158.13 112.796 155.525 111.291 155.525 107.93V96.6698H153.107V107.757C153.107 112.29 156.779 113.906 160.215 113.906C162.679 113.906 165.266 112.545 166.429 110.696V113.799H168.849V96.6698H166.429V107.825Z" fill="white"/>
<path d="M185.489 97.8041C184.629 96.9446 183.305 96.5274 181.432 96.5274C179.009 96.5274 177.488 97.8772 176.602 99.1254V96.3508H174.182V113.799H176.602V102.499C176.602 100.088 178.146 97.5259 181.006 97.5259C182.315 97.5259 183.146 97.9824 183.494 98.865L183.586 99.2217H186.261L186.222 99.0861C186.084 98.6061 185.833 98.1664 185.489 97.8041Z" fill="white"/>
<path d="M202.908 97.9361C200.801 96.3135 198.135 96.137 197.086 96.137C191.444 96.137 188.506 99.2967 187.636 102.253C187.354 103.137 187.209 104.059 187.206 104.987V105.343C187.195 105.483 187.208 105.625 187.243 105.761C187.629 109.705 190.79 113.942 196.835 113.942C200.653 113.942 202.949 112.435 203.762 111.786C204.213 111.421 204.623 111.01 204.987 110.559L205.06 110.459L204.556 110.179L204.497 110.247C203.07 111.955 200.501 113.014 197.794 113.014C194.144 113.014 190.107 110.885 189.668 104.919H205.619L205.642 104.844C205.683 104.658 205.698 104.467 205.685 104.277V103.778C205.686 101.326 204.698 99.2521 202.908 97.9361ZM189.699 104.309C189.696 103.335 189.887 102.37 190.259 101.47C191.329 98.6173 193.825 96.7807 196.623 96.7807H196.837C198.871 96.7807 200.53 97.4939 201.763 98.8741C203.012 100.359 203.19 102.139 203.19 103.068V103.92C203.193 104.05 203.189 104.18 203.177 104.309H189.699Z" fill="white"/>
<path d="M28.1988 111.821L28.4413 112.519C28.6203 113.029 28.8415 113.524 29.1029 113.999H31.5547C31.3764 113.578 31.207 113.148 31.0608 112.731L28.4681 105.345L26.2017 106.163L26.8437 107.975C27.104 108.612 27.3679 109.387 27.6229 110.138C27.7441 110.495 27.8654 110.851 27.9795 111.194C26.553 112.117 24.3134 113.084 22.2129 113.084C20.847 113.084 18.5557 112.624 18.5557 109.534C18.5557 106.128 25.0052 104.006 28.4146 103.351L30.5276 102.943V102.854C30.5276 98.6672 29.5504 96.2439 24.5577 96.2439C24.0227 96.2439 23.5787 96.2778 23.1312 96.317C18.9051 96.7271 18.495 98.8134 18.495 98.8401V98.9471H21.102L21.118 98.8597C21.1788 98.4907 21.3295 98.1423 21.5567 97.8452C22.1469 97.1622 23.0634 96.8163 24.2795 96.8163C27.6906 96.8163 28.2844 98.6422 28.2933 102.733C26.2565 103.193 24.2507 103.78 22.2877 104.493C19.9697 105.363 16.1074 107.205 16.1074 109.781C16.0877 110.448 16.2531 111.107 16.5853 111.686C17.5036 113.184 19.342 113.975 21.899 113.975C24.5737 113.975 26.808 112.647 27.8814 112.014L28.1988 111.821Z" fill="white"/>
<path d="M115.285 111.821L115.528 112.519C115.707 113.029 115.928 113.524 116.189 113.999H118.641C118.463 113.578 118.284 113.148 118.147 112.731L115.554 105.345L113.288 106.163L113.93 107.975C114.19 108.612 114.454 109.387 114.709 110.138C114.83 110.495 114.952 110.851 115.066 111.194C113.639 112.117 111.401 113.084 109.299 113.084C107.933 113.084 105.642 112.624 105.642 109.534C105.642 106.128 112.091 104.006 115.501 103.351L117.614 102.943V102.854C117.614 98.6672 116.637 96.2439 111.644 96.2439C111.109 96.2439 110.665 96.2778 110.217 96.317C105.991 96.7271 105.581 98.8134 105.581 98.8401V98.9471H108.19L108.206 98.8597C108.267 98.4907 108.417 98.1423 108.645 97.8452C109.235 97.1622 110.151 96.8163 111.368 96.8163C114.779 96.8163 115.372 98.6422 115.381 102.733C113.345 103.193 111.339 103.78 109.376 104.493C107.065 105.363 103.197 107.205 103.197 109.787C103.177 110.454 103.343 111.113 103.675 111.691C104.593 113.189 106.432 113.981 108.989 113.981C111.664 113.981 113.898 112.652 114.973 112.019L115.285 111.821Z" fill="white"/>
<path d="M130.918 96.2083C129.006 96.2083 126.339 96.8341 124.595 98.5798C124.376 98.7732 124.174 98.9843 123.99 99.2111V96.7058H121.573V122.219H123.99V111.698C124.445 112.103 124.952 112.444 125.499 112.711C126.915 113.507 128.511 113.927 130.135 113.933C135.918 113.933 139.802 110.366 139.802 105.049C139.802 99.8476 136.148 96.2083 130.918 96.2083ZM130.847 113.262C127.434 113.262 123.99 111.427 123.99 107.331V100.358C124.552 99.2253 126.005 98.1483 127.129 97.6205C128.069 97.1817 129.098 96.9668 130.135 96.9928C134.985 96.9928 137.524 101.272 137.524 105.52C137.524 109.252 135.435 113.262 130.847 113.262Z" fill="white"/>
<path d="M102.998 0.124023C81.6321 0.124023 64.2501 17.506 64.2501 38.8715C64.2501 60.237 81.6321 77.619 102.998 77.619C124.363 77.619 141.745 60.237 141.745 38.8715C141.745 17.506 124.363 0.124023 102.998 0.124023ZM140.171 38.8715C140.171 59.3775 123.495 76.0427 102.998 76.0427C82.5005 76.0427 65.8264 59.3686 65.8264 38.8715C65.8264 18.3744 82.5023 1.70031 102.998 1.70031C123.493 1.70031 140.171 18.3744 140.171 38.8715Z" fill="white"/>
<path d="M126.41 27.7163C126.409 26.4067 126.233 25.1031 125.888 23.8398C125.098 20.9297 123.415 18.4102 121.152 16.7411C119.165 15.279 116.439 14.448 113.484 14.4035C109.479 14.341 105.426 15.3503 101.503 16.3221L101.268 16.3809C100.5 16.5717 99.7167 16.7786 98.9304 16.9926C99.2549 16.5682 99.5955 16.1545 99.9557 15.7658L101.739 15.9227L101.812 15.0775L100.733 14.983C101.116 14.6263 101.516 14.2804 101.921 13.9666L103.704 14.1217L103.777 13.2783L102.992 13.2105C103.86 12.6423 104.783 12.1643 105.747 11.784L106.115 11.6414L105.74 10.6838L105.375 10.8283C102.081 12.1438 99.2778 14.4491 97.3505 17.4259H97.322V17.4615C95.862 19.6992 94.8898 22.2194 94.469 24.858C93.4258 21.4254 90.3999 14.2323 83.0837 12.615L82.6914 12.5383L82.4703 13.5404L82.8554 13.626L82.941 13.6438L82.6878 13.6884L82.8323 14.5229L84.6974 14.1966C85.4146 14.4858 86.102 14.8442 86.7498 15.2665L85.7352 15.4448L85.8814 16.2775L87.7002 15.9601C88.1042 16.2838 88.49 16.6297 88.8557 16.9961L87.5914 17.2155L87.7377 18.05L89.5458 17.7343C89.815 18.0446 90.0807 18.3709 90.3285 18.7079L88.9538 18.9487L89.1 19.7814L90.8653 19.4747C91.1238 19.8652 91.3735 20.2753 91.6088 20.6961L90.1663 20.9475L90.3125 21.7821L92.0279 21.4825C92.1973 21.8195 92.3578 22.1619 92.5093 22.5042L91.1078 22.7485L91.254 23.583L92.8374 23.3048C92.9783 23.6615 93.1102 24.0181 93.2315 24.3836L92.0243 24.5941L91.7283 24.6475L91.8727 25.4803L93.49 25.1968C93.6684 25.7923 93.8235 26.4004 93.9519 27.0084C93.0889 26.2512 92.1296 25.6114 91.0989 25.1058L90.9776 25.047C85.1271 22.251 78.6151 23.6847 75.2522 24.7884L74.8795 24.9115L75.1987 25.8868L75.5731 25.762C75.8852 25.6604 76.2044 25.5623 76.5271 25.4696L76.035 26.1169L76.7108 26.6286L77.8538 25.1219C78.5171 24.9649 79.1875 24.8348 79.8526 24.7314L79.2018 25.5873L79.8776 26.1008L81.0313 24.5762C81.6019 24.5156 82.1689 24.4764 82.7217 24.4603L82.0334 25.3662L82.7074 25.8779L83.788 24.4514C84.2463 24.4603 84.7063 24.4871 85.1557 24.5281L84.3604 25.5783L85.0344 26.0901L86.1293 24.6458C86.559 24.71 86.9798 24.7902 87.3882 24.8829L86.5537 25.9831L87.2277 26.4949L88.2762 25.1129C88.6756 25.2288 89.0714 25.3626 89.4548 25.5088L88.4973 26.7713L89.1713 27.283L90.2644 25.844L90.5336 25.9689L90.6477 26.0241C90.8831 26.14 91.1149 26.2631 91.3521 26.4022L90.3856 27.6753L91.0614 28.1871L92.0689 26.8568C92.5976 27.2107 93.0978 27.6053 93.5649 28.0373C88.8325 28.5918 84.0608 31.896 80.4482 37.1313L80.22 37.4611L80.6497 37.7447L80.746 37.8088L81.0705 38.0353L81.2952 37.709C81.5698 37.3114 81.8605 36.9137 82.1868 36.5L82.4721 37.6929L83.2959 37.4968L82.8572 35.6602C83.2138 35.2411 83.5705 34.8292 83.9503 34.4369L84.2427 35.662L85.0665 35.464L84.6528 33.7522C85.0095 33.4099 85.375 33.0818 85.7388 32.7751L86.0562 34.1017L86.88 33.9074L86.4698 32.1902C86.8657 31.8871 87.2723 31.6018 87.677 31.3396L87.9998 32.6859L88.8218 32.4898L88.4366 30.8725C88.7558 30.6942 89.0911 30.5158 89.4334 30.3482L89.79 31.8282L90.6156 31.6339L90.2216 29.9898C90.5675 29.8472 90.9259 29.7152 91.2914 29.5975L91.6481 31.0918L92.4701 30.8939L92.1028 29.3568C92.5609 29.2412 93.0253 29.1519 93.4936 29.0893C91.3717 36.8959 87.8732 49.656 83.089 67.0469L83.0801 67.079L83.0962 67.1111C83.1912 67.2787 83.2519 67.4636 83.2745 67.6549V67.7459H84.2017L84.2267 67.6959C84.462 67.2234 87.998 54.5471 95.0307 28.9592C95.249 28.9364 95.4695 28.954 95.6815 29.0109C96.2333 29.0458 96.7816 29.1221 97.322 29.2391L97.0652 30.8439L97.9015 30.9777L98.1458 29.446C98.4846 29.5405 98.7877 29.6403 99.0677 29.7473L99.2317 29.8151L98.9714 31.4395L99.8077 31.5715L100.032 30.161C100.371 30.3179 100.708 30.4873 101.038 30.6692L100.76 32.4149L101.596 32.5486L101.824 31.1221C102.281 31.4021 102.73 31.7016 103.16 32.0137L102.885 33.7255L103.723 33.8592L103.923 32.5985C104.31 32.9052 104.701 33.2387 105.088 33.5882L104.802 35.3499L105.639 35.4836L105.828 34.2907C106.203 34.6545 106.566 35.0224 106.915 35.3945L106.634 37.1669L107.47 37.2989L107.648 36.2005C107.955 36.5571 108.258 36.9137 108.55 37.2596L108.253 39.1266L109.089 39.2585L109.267 38.1494C109.613 38.5916 109.963 39.0517 110.337 39.551L110.571 39.8666L111.396 39.2585L111.163 38.9411C108.666 35.5532 104.729 30.8154 99.4386 28.7915C99.1444 28.6792 98.843 28.5758 98.547 28.4848L98.9874 28.1282L97.9176 26.8194C98.235 26.6179 98.5648 26.4235 98.9018 26.2381L100.047 27.6343L100.701 27.0994L99.6686 25.8387C100 25.6746 100.346 25.5177 100.697 25.3715L101.812 26.732L102.466 26.1971L101.527 25.0488C101.967 24.8883 102.418 24.7438 102.869 24.6172L103.971 25.9635L104.626 25.4286L103.752 24.3747C104.187 24.2767 104.631 24.1964 105.075 24.1269L106.182 25.4767L106.837 24.9418L106.072 24.0056C106.575 23.9593 107.085 23.9325 107.591 23.9272L108.761 25.3537L109.415 24.8187L108.702 23.9521C109.36 23.9884 110.015 24.064 110.663 24.1786L111.794 25.5605L112.45 25.0256L111.997 24.471C112.661 24.6468 113.312 24.8666 113.946 25.129L114.303 25.2806L114.697 24.3337L114.34 24.1822C108.843 21.8997 102.095 22.7556 96.9047 26.2328L96.9761 25.4107L95.4354 25.277C95.4907 24.9097 95.5567 24.5423 95.6334 24.1804L97.2863 24.3248L97.3594 23.4814L95.8295 23.3476C95.9222 22.991 96.0274 22.6344 96.1398 22.2778L97.873 22.4293L97.9461 21.5841L96.4322 21.4522C96.6105 20.9921 96.7995 20.5392 97.0064 20.1023L98.777 20.2575L98.8519 19.4141L97.4254 19.2892C97.4718 19.2036 97.5217 19.1109 97.5681 19.036C100.956 17.7771 104.759 16.8963 109.196 16.3275C112.406 15.9245 116.091 15.7105 119.181 17.203C124.731 19.8777 125.515 26.1186 124.5 30.6531C123.884 33.4152 122.473 36.1951 120.422 38.6951C119.062 40.3601 117.469 41.8212 115.694 43.0334C115.194 43.3722 114.697 43.7271 114.215 44.0712C113.443 44.624 112.644 45.1964 111.821 45.7081C106.901 48.7644 101.815 50.5083 97.1098 50.749H96.9957C94.4369 50.897 93.6969 50.6117 93.5257 50.3461C93.4959 50.2925 93.4818 50.2317 93.4849 50.1705C93.4881 50.1094 93.5084 50.0503 93.5435 50.0001C94.0214 49.0907 95.4069 48.4185 96.4197 47.9281C96.6159 47.8318 96.8031 47.7498 96.9689 47.6571C97.6412 47.3112 98.3384 46.9884 99.0124 46.6764L99.8112 46.3055C103.101 44.7613 106.53 43.5238 109.487 42.486L111.414 41.8138L112.646 41.3858C112.86 41.3109 113.092 41.2414 113.336 41.1683C114.05 40.9561 114.85 40.7171 115.398 40.2553C115.557 40.1393 115.669 39.9696 115.713 39.7774C115.732 39.7003 115.73 39.6194 115.706 39.5436C115.682 39.4678 115.638 39.4 115.578 39.3477C115.121 38.9715 113.65 39.4511 112.584 39.8452L112.429 39.9022L111.025 40.3837L109.383 40.9579C107.452 41.6248 105.38 42.3541 103.32 43.1743C100.491 44.2959 97.2418 45.6546 94.4832 47.5644L94.3584 47.65C93.7522 48.069 93.1227 48.5041 92.6306 49.0604C92.1384 49.6168 91.8442 50.5262 92.3328 51.2501C92.7768 51.9081 93.7147 52.2611 95.2018 52.32C95.4016 52.3289 95.6048 52.3342 95.8117 52.3342C97.3917 52.3077 98.9639 52.1061 100.5 51.7333C106.963 50.2957 112.968 47.2742 117.974 42.9407C123.573 38.0745 126.41 32.9498 126.41 27.7163ZM96.2111 28.0212C96.5267 27.768 96.8548 27.522 97.19 27.2866L98.0638 28.3565C97.4555 28.1983 96.8362 28.0862 96.2111 28.0212ZM95.2429 27.4863C95.2571 27.0334 95.2874 26.5733 95.3356 26.1133L96.8816 26.2488C96.3128 26.6326 95.7658 27.0475 95.2429 27.4916V27.4863Z" fill="white"/>
<path d="M132.722 45.5153C132.264 45.2818 131.915 45.5421 131.715 45.7739L131.676 45.8203C131.617 45.8925 131.566 45.9701 131.522 46.0521L131.503 46.0271C130.035 47.7871 128.347 49.6576 126.387 51.159C124.688 52.4606 123.028 53.0116 121.453 52.7977C120.636 52.6871 119.969 52.334 119.575 51.8009C119.396 51.5475 119.271 51.2602 119.207 50.9567C119.143 50.6531 119.142 50.3397 119.203 50.0356C119.436 48.5826 120.043 47.2152 120.964 46.0674C121.885 44.9195 123.088 44.0307 124.456 43.4879C124.456 43.4879 125.82 42.9904 125.445 41.9847L125.362 42.0044C123.496 42.423 121.778 43.3358 120.387 44.647C118.53 46.3944 117.4 48.5698 117.355 50.4796C117.323 52.0327 118.108 53.2809 119.566 53.9959C120.297 54.3539 121.1 54.5371 121.913 54.5309C123.161 54.5309 124.556 54.1421 126.118 53.3647C127.242 52.7843 128.269 52.0337 129.163 51.1393C130.626 49.6886 131.886 48.0463 132.908 46.2571C132.962 46.1302 132.973 45.989 132.94 45.8551C132.906 45.7212 132.83 45.6019 132.722 45.5153Z" fill="white"/>
</svg>
