<svg width="138" height="89" viewBox="0 0 138 89" fill="none" xmlns="http://www.w3.org/2000/svg">
<path d="M24.2548 85.8747C24.2548 84.9077 24.2548 84.7306 24.2416 84.5271C24.2284 84.3237 24.1722 84.2088 23.9448 84.1681C23.8557 84.1547 23.7656 84.1487 23.6756 84.1502C23.6002 84.1502 23.5559 84.137 23.5559 84.0927C23.5559 84.0484 23.6049 84.0353 23.7079 84.0353C24.0729 84.0353 24.5085 84.0544 24.7012 84.0544C24.9836 84.0544 25.3833 84.0353 25.7004 84.0353C26.5621 84.0353 26.872 84.3022 26.9821 84.3943C27.0874 84.4908 27.1722 84.6075 27.2314 84.7374C27.2906 84.8674 27.323 85.0079 27.3268 85.1506C27.3268 86.053 26.6087 86.6884 25.631 86.6884C25.5832 86.6914 25.5352 86.6914 25.4874 86.6884C25.4527 86.6825 25.4036 86.6753 25.4036 86.631C25.4036 86.5867 25.4527 86.5616 25.5975 86.5616C25.9829 86.5616 26.5214 86.1607 26.5214 85.5132C26.5319 85.3331 26.5006 85.153 26.43 84.9869C26.3594 84.8209 26.2515 84.6733 26.1145 84.5559C25.9209 84.3949 25.677 84.3068 25.4252 84.3069C25.3347 84.304 25.2441 84.3129 25.1559 84.3333C25.1212 84.3452 25.1009 84.3835 25.1009 84.4529V86.9972C25.1009 87.5824 25.1009 88.085 25.1356 88.3579C25.1559 88.535 25.1978 88.675 25.4036 88.7013C25.5204 88.7159 25.6378 88.7243 25.7555 88.7265C25.8321 88.7265 25.8656 88.7456 25.8656 88.7767C25.8656 88.8079 25.8105 88.8402 25.7351 88.8402C25.2804 88.8402 24.846 88.8222 24.6664 88.8222C24.5085 88.8222 24.0681 88.8402 23.7976 88.8402C23.7079 88.8402 23.66 88.8222 23.66 88.7767C23.66 88.7313 23.6875 88.7265 23.7701 88.7265C23.8533 88.7263 23.9363 88.7179 24.0178 88.7013C24.1566 88.675 24.1901 88.535 24.2189 88.3519C24.2524 88.085 24.2524 87.5824 24.2524 86.9972L24.2548 85.8747Z" fill="#BC8159"/>
<path d="M35.3413 86.0518C35.3471 86.052 35.3528 86.0509 35.3582 86.0487C35.3635 86.0466 35.3683 86.0433 35.3723 86.0391C35.3762 86.0349 35.3792 86.0299 35.3811 86.0245C35.383 86.019 35.3837 86.0132 35.3832 86.0075V85.8747C35.3832 84.9077 35.3832 84.7306 35.3689 84.5271C35.3545 84.3237 35.2995 84.2088 35.0721 84.1681C34.9834 84.1547 34.8937 84.1487 34.804 84.1502C34.7274 84.1502 34.6843 84.137 34.6843 84.0927C34.6843 84.0484 34.7322 84.0353 34.8279 84.0353C35.2013 84.0353 35.6345 84.0544 35.8212 84.0544C35.9864 84.0544 36.4196 84.0353 36.6901 84.0353C36.7858 84.0353 36.8349 84.0484 36.8349 84.0927C36.8349 84.137 36.793 84.1502 36.7152 84.1502C36.6482 84.1514 36.5814 84.1574 36.5153 84.1681C36.3286 84.2004 36.276 84.3081 36.2604 84.5271C36.2473 84.7306 36.2473 84.9077 36.2473 85.8747V86.9972C36.2473 87.5824 36.2473 88.085 36.2808 88.3579C36.3023 88.535 36.343 88.675 36.55 88.7013C36.6664 88.7159 36.7834 88.7243 36.9007 88.7265C36.9773 88.7265 37.012 88.7456 37.012 88.7767C37.012 88.8079 36.9569 88.8402 36.8744 88.8402C36.4256 88.8402 35.9912 88.8222 35.7973 88.8222C35.6381 88.8222 35.2049 88.8402 34.9356 88.8402C34.8387 88.8402 34.7908 88.8222 34.7908 88.7767C34.7908 88.7313 34.8184 88.7265 34.9009 88.7265C34.9845 88.7262 35.0679 88.7178 35.1499 88.7013C35.2875 88.675 35.3222 88.535 35.3485 88.3519C35.3833 87.9012 35.3953 87.4491 35.3844 86.9972V86.4383C35.3843 86.433 35.3831 86.4278 35.3809 86.423C35.3787 86.4182 35.3755 86.4139 35.3716 86.4103C35.3677 86.4067 35.3631 86.404 35.3581 86.4022C35.3531 86.4004 35.3478 86.3997 35.3425 86.4H32.7097C32.6882 86.4 32.6678 86.4 32.6678 86.4383V86.9972C32.6678 87.5824 32.6678 88.085 32.7025 88.3579C32.7229 88.535 32.7648 88.675 32.9706 88.7013C33.0874 88.7159 33.2048 88.7243 33.3224 88.7265C33.3978 88.7265 33.4325 88.7456 33.4325 88.7767C33.4325 88.8079 33.3775 88.8402 33.2949 88.8402C32.8473 88.8402 32.4129 88.8222 32.2179 88.8222C32.0587 88.8222 31.6195 88.8402 31.349 88.8402C31.2593 88.8402 31.2114 88.8222 31.2114 88.7767C31.2114 88.7313 31.2389 88.7265 31.3215 88.7265C31.4047 88.7263 31.4877 88.7178 31.5692 88.7013C31.7069 88.675 31.7416 88.535 31.7691 88.3519C31.8038 88.085 31.8038 87.5824 31.8038 86.9972V85.8794C31.8038 84.9125 31.8038 84.7354 31.7906 84.5319C31.7775 84.3285 31.7212 84.2136 31.4938 84.1729C31.4047 84.1595 31.3147 84.1535 31.2246 84.155C31.1492 84.155 31.1049 84.1418 31.1049 84.0975C31.1049 84.0532 31.154 84.0401 31.2497 84.0401C31.6219 84.0401 32.0563 84.0592 32.243 84.0592C32.4081 84.0592 32.8414 84.0401 33.1106 84.0401C33.2076 84.0401 33.2554 84.0532 33.2554 84.0975C33.2554 84.1418 33.2147 84.155 33.1358 84.155C33.0688 84.1562 33.002 84.1622 32.9359 84.1729C32.7492 84.2052 32.6966 84.3129 32.6798 84.5319C32.6666 84.7354 32.6666 84.9125 32.6666 85.8794V86.0123C32.6659 86.0181 32.6665 86.0239 32.6683 86.0295C32.6701 86.035 32.6731 86.0401 32.6771 86.0443C32.6811 86.0485 32.686 86.0518 32.6915 86.0539C32.6969 86.0561 32.7027 86.057 32.7085 86.0566L35.3413 86.0518Z" fill="#BC8159"/>
<path d="M40.7207 86.4335C40.7207 85.3457 41.4997 83.9419 43.5677 83.9419C45.2838 83.9419 46.3525 84.8634 46.3525 86.3186C46.3525 87.7738 45.2491 88.9251 43.4983 88.9251C41.5213 88.9251 40.7207 87.5584 40.7207 86.4335ZM45.3879 86.5532C45.3879 85.1291 44.4976 84.2459 43.3678 84.2459C42.5756 84.2459 41.6721 84.6528 41.6721 86.2348C41.6721 87.5572 42.4643 88.6056 43.7879 88.6056C44.2702 88.6068 45.3879 88.3914 45.3879 86.5544V86.5532Z" fill="#BC8159"/>
<path d="M51.6911 84.3871L50.6643 84.4122C50.2646 84.4254 50.0994 84.4565 49.9965 84.5965C49.9435 84.6629 49.9029 84.7383 49.8768 84.8191C49.8625 84.8694 49.8421 84.8957 49.8002 84.8957C49.7583 84.8957 49.738 84.8634 49.738 84.794C49.738 84.6923 49.8696 84.113 49.8828 84.0616C49.9032 83.9802 49.9247 83.9419 49.9654 83.9419C50.0619 83.9761 50.1612 84.0017 50.2622 84.0185C50.462 84.0364 50.7241 84.0496 50.9515 84.0496H53.6812C53.8413 84.0494 54.0012 84.039 54.1599 84.0185C54.221 84.0039 54.283 83.9931 54.3454 83.9862C54.3933 83.9862 54.4005 84.0245 54.4005 84.1202C54.4005 84.2531 54.3801 84.6922 54.3801 84.8574C54.373 84.9208 54.3586 84.9591 54.3179 84.9591C54.2772 84.9591 54.2485 84.9268 54.2413 84.8323L54.2353 84.7617C54.221 84.5965 54.0355 84.4182 53.4216 84.4026L52.5527 84.3847V86.9972C52.5527 87.5824 52.5527 88.085 52.5874 88.3578C52.6078 88.535 52.6497 88.675 52.8567 88.7013C52.973 88.7159 53.0901 88.7243 53.2073 88.7264C53.2839 88.7264 53.3174 88.7456 53.3174 88.7767C53.3174 88.8078 53.2624 88.8401 53.187 88.8401C52.7322 88.8401 52.2978 88.8222 52.1099 88.8222C51.952 88.8222 51.5116 88.8401 51.2411 88.8401C51.1525 88.8401 51.1035 88.8222 51.1035 88.7767C51.1035 88.7312 51.131 88.7264 51.2136 88.7264C51.2968 88.7263 51.3798 88.7179 51.4613 88.7013C51.6001 88.675 51.6408 88.535 51.6623 88.3519C51.6959 88.085 51.6959 87.5824 51.6959 86.9972L51.6911 84.3871Z" fill="#BC8159"/>
<path d="M57.8627 86.4335C57.8627 85.3457 58.643 83.9419 60.7097 83.9419C62.4258 83.9419 63.4957 84.8634 63.4957 86.3186C63.4957 87.7738 62.3923 88.9251 60.6415 88.9251C58.6633 88.9251 57.8627 87.5584 57.8627 86.4335ZM62.5299 86.5532C62.5299 85.1291 61.6408 84.2459 60.5099 84.2459C59.7176 84.2459 58.8153 84.6528 58.8153 86.2348C58.8153 87.5572 59.6075 88.6056 60.9299 88.6056C61.4134 88.6068 62.5299 88.3914 62.5299 86.5544V86.5532Z" fill="#BC8159"/>
<path d="M72.2247 88.4105C72.2247 88.5816 72.2175 88.5948 72.1361 88.6391C71.6874 88.8557 71.0112 88.9251 70.4739 88.9251C68.7853 88.9251 67.2894 88.1879 67.2894 86.4335C67.2827 86.0113 67.3904 85.5951 67.6011 85.2291C67.8118 84.8631 68.1176 84.561 68.4861 84.3548C69.1467 83.9862 69.7606 83.9419 70.3398 83.9419C70.7482 83.9481 71.1556 83.9821 71.5593 84.0436C71.7394 84.077 71.9212 84.1002 72.1038 84.113C72.1876 84.1202 72.2008 84.1453 72.2008 84.1896C72.162 84.5357 72.146 84.8839 72.1529 85.232C72.1529 85.3337 72.1325 85.366 72.0763 85.366C72.0201 85.366 72.0153 85.3337 72.0081 85.2822C71.9915 85.0844 71.9069 84.8983 71.7687 84.7557C71.5617 84.5522 71.01 84.259 70.2309 84.259C69.8528 84.259 69.349 84.2854 68.8667 84.654C68.4813 84.9519 68.2324 85.4294 68.2324 86.2097C68.2324 87.5764 69.1766 88.6032 70.6318 88.6032C70.8296 88.6154 71.0279 88.5915 71.217 88.5326C71.2626 88.5133 71.3004 88.4791 71.324 88.4357C71.3477 88.3922 71.356 88.342 71.3475 88.2932V87.6949C71.3475 87.3765 71.3475 87.1348 71.3415 86.9445C71.3343 86.7279 71.2721 86.6274 71.0447 86.5855C70.9557 86.5716 70.8656 86.5652 70.7755 86.5663C70.7132 86.5663 70.6725 86.5544 70.6725 86.5161C70.6725 86.4778 70.7204 86.4526 70.8173 86.4526C71.1764 86.4526 71.6108 86.4718 71.8166 86.4718C72.0224 86.4718 72.3958 86.4526 72.6232 86.4526C72.713 86.4526 72.762 86.4646 72.762 86.5161C72.762 86.5675 72.7201 86.5663 72.6711 86.5663C72.6089 86.5681 72.5469 86.5745 72.4856 86.5855C72.3001 86.6178 72.2307 86.7255 72.2235 86.9445C72.2163 87.1348 72.2163 87.3897 72.2163 87.708L72.2247 88.4105Z" fill="#BC8159"/>
<path d="M77.1851 85.8747C77.1851 84.9077 77.1851 84.7306 77.1708 84.5271C77.1564 84.3237 77.1014 84.2088 76.874 84.1681C76.7853 84.1547 76.6956 84.1487 76.6059 84.1502C76.5293 84.1502 76.4862 84.137 76.4862 84.0927C76.4862 84.0484 76.5341 84.0353 76.637 84.0353C77.0032 84.0353 77.4376 84.0544 77.5824 84.0544C77.8218 84.0544 78.3412 84.0353 78.5542 84.0353C78.9886 84.0353 79.4505 84.0736 79.8215 84.3081C79.9637 84.4053 80.0804 84.5351 80.1621 84.6867C80.2437 84.8383 80.2878 85.0072 80.2907 85.1794C80.2907 85.6497 80.0776 86.0829 79.3811 86.6035C79.9939 87.3215 80.4702 87.8816 80.8771 88.2789C81.2624 88.6475 81.546 88.6918 81.6489 88.7109C81.7125 88.7228 81.777 88.7292 81.8416 88.7301C81.8967 88.7301 81.9254 88.7492 81.9254 88.7803C81.9254 88.8318 81.8763 88.8438 81.7937 88.8438H81.1391C80.7526 88.8438 80.5803 88.8126 80.4007 88.7241C80.1052 88.5769 79.8431 88.2789 79.4565 87.7894C79.1813 87.44 78.8641 87.008 78.7744 86.9122C78.759 86.8964 78.7403 86.8842 78.7196 86.8766C78.6989 86.8689 78.6767 86.866 78.6547 86.8679L78.0564 86.8548C78.0216 86.8548 78.0013 86.8679 78.0013 86.9062V86.9948C78.0013 87.586 78.0013 88.0886 78.0348 88.3555C78.0564 88.5386 78.097 88.6786 78.3041 88.7049C78.407 88.7169 78.559 88.7301 78.6416 88.7301C78.6966 88.7301 78.7241 88.7492 78.7241 88.7803C78.7241 88.8114 78.6763 88.8438 78.5865 88.8438C78.1868 88.8438 77.677 88.8258 77.5729 88.8258C77.4424 88.8258 77.008 88.8438 76.7352 88.8438C76.6442 88.8438 76.5963 88.8258 76.5963 88.7803C76.5963 88.7349 76.6251 88.7301 76.7064 88.7301C76.79 88.7298 76.8734 88.7214 76.9554 88.7049C77.093 88.6786 77.1277 88.5386 77.1552 88.3555C77.1899 88.0886 77.1899 87.586 77.1899 87.0008L77.1851 85.8747ZM77.9989 86.3761C77.9989 86.4467 78.0121 86.4718 78.0599 86.4958C78.231 86.5403 78.4073 86.5616 78.5841 86.5592C78.8594 86.5592 78.9431 86.5329 79.0736 86.4515C79.2806 86.3115 79.4805 86.0183 79.4805 85.4941C79.4805 84.5918 78.8318 84.3309 78.4249 84.3309C78.3047 84.326 78.1843 84.3345 78.0659 84.356C78.0181 84.368 78.0049 84.3943 78.0049 84.4446L77.9989 86.3761Z" fill="#BC8159"/>
<path d="M85.7011 87.215C85.6664 87.215 85.652 87.2281 85.6389 87.2664L85.2667 88.1365C85.2094 88.259 85.1742 88.3906 85.1626 88.5254C85.1626 88.6451 85.2248 88.7217 85.439 88.7217H85.5419C85.6245 88.7217 85.646 88.7336 85.646 88.7719C85.646 88.8102 85.6042 88.8353 85.5264 88.8353C85.305 88.8353 85.0094 88.8174 84.7952 88.8174C84.7198 88.8174 84.3404 88.8353 83.9814 88.8353C83.8928 88.8353 83.8509 88.8234 83.8509 88.7719C83.8509 88.7205 83.8785 88.7217 83.9335 88.7217C84.0051 88.721 84.0766 88.7166 84.1477 88.7085C84.4649 88.6702 84.5953 88.4548 84.7329 88.1365L86.4634 84.1956C86.546 84.0113 86.5831 83.9419 86.6561 83.9419C86.7291 83.9419 86.759 83.9981 86.8284 84.1453C86.9936 84.4948 88.097 87.0378 88.5386 88.0036C88.8006 88.5756 89.0005 88.6654 89.1453 88.6965C89.2409 88.7136 89.3378 88.722 89.4349 88.7217C89.49 88.7217 89.5235 88.7288 89.5235 88.7719C89.5235 88.815 89.4612 88.8353 89.2075 88.8353C88.9538 88.8353 88.456 88.8353 87.9043 88.8234C87.7846 88.8234 87.6973 88.8234 87.6973 88.7719C87.6973 88.7205 87.7248 88.7217 87.793 88.7157C87.8078 88.7116 87.8215 88.7042 87.8331 88.6941C87.8447 88.684 87.8538 88.6713 87.8598 88.6572C87.8658 88.643 87.8685 88.6277 87.8677 88.6123C87.8669 88.5969 87.8626 88.5819 87.8552 88.5685L87.3047 87.2592C87.2996 87.2453 87.29 87.2334 87.2775 87.2255C87.2649 87.2175 87.2501 87.2138 87.2353 87.215H85.7011ZM87.1061 86.8978C87.142 86.8978 87.1479 86.8787 87.142 86.8595L86.5209 85.2954C86.5137 85.2703 86.5077 85.2392 86.4862 85.2392C86.4646 85.2392 86.4526 85.2703 86.4455 85.2954L85.8112 86.8512C85.804 86.8775 85.8112 86.8966 85.8387 86.8966L87.1061 86.8978Z" fill="#BC8159"/>
<path d="M93.286 85.8747C93.286 84.9077 93.286 84.7306 93.2728 84.5271C93.2596 84.3237 93.2034 84.2088 92.976 84.1681C92.8869 84.1547 92.7968 84.1487 92.7067 84.1502C92.6314 84.1502 92.5871 84.137 92.5871 84.0927C92.5871 84.0484 92.6361 84.0353 92.7391 84.0353C93.1041 84.0353 93.5385 84.0544 93.7323 84.0544C94.0148 84.0544 94.4145 84.0353 94.7316 84.0353C95.5933 84.0353 95.9032 84.3022 96.0133 84.3943C96.1186 84.4908 96.2034 84.6075 96.2626 84.7374C96.3218 84.8674 96.3542 85.0079 96.358 85.1506C96.358 86.053 95.6399 86.6884 94.6622 86.6884C94.614 86.6914 94.5656 86.6914 94.5174 86.6884C94.4839 86.6825 94.4348 86.6753 94.4348 86.631C94.4348 86.5867 94.4839 86.5616 94.6275 86.5616C95.014 86.5616 95.5514 86.1607 95.5514 85.5132C95.5621 85.3331 95.531 85.1529 95.4604 84.9867C95.3898 84.8206 95.2817 84.6731 95.1445 84.5559C94.9509 84.3949 94.707 84.3068 94.4552 84.3069C94.3651 84.3041 94.2749 84.3129 94.1871 84.3333C94.1524 84.3452 94.1321 84.3835 94.1321 84.4529V86.9972C94.1321 87.5824 94.1321 88.085 94.1656 88.3579C94.1871 88.535 94.2278 88.675 94.4348 88.7013C94.5516 88.7159 94.669 88.7243 94.7867 88.7265C94.8621 88.7265 94.8968 88.7456 94.8968 88.7767C94.8968 88.8079 94.8417 88.8402 94.7663 88.8402C94.3116 88.8402 93.876 88.8222 93.6976 88.8222C93.5385 88.8222 93.0993 88.8402 92.8288 88.8402C92.7391 88.8402 92.6912 88.8222 92.6912 88.7767C92.6912 88.7313 92.7187 88.7265 92.8013 88.7265C92.8845 88.7263 92.9675 88.7178 93.049 88.7013C93.1866 88.675 93.2213 88.535 93.2489 88.3519C93.2836 88.085 93.2836 87.5824 93.2836 86.9972L93.286 85.8747Z" fill="#BC8159"/>
<path d="M104.373 86.0518C104.378 86.052 104.384 86.0509 104.389 86.0487C104.395 86.0466 104.4 86.0433 104.403 86.0391C104.407 86.0349 104.41 86.0299 104.412 86.0245C104.414 86.019 104.415 86.0132 104.414 86.0075V85.8747C104.414 84.9077 104.414 84.7306 104.4 84.5271C104.386 84.3237 104.331 84.2088 104.103 84.1681C104.015 84.1547 103.925 84.1487 103.835 84.1502C103.759 84.1502 103.716 84.137 103.716 84.0927C103.716 84.0484 103.763 84.0353 103.86 84.0353C104.233 84.0353 104.666 84.0544 104.852 84.0544C105.018 84.0544 105.451 84.0353 105.721 84.0353C105.817 84.0353 105.866 84.0484 105.866 84.0927C105.866 84.137 105.824 84.1502 105.746 84.1502C105.679 84.1514 105.613 84.1574 105.547 84.1681C105.36 84.2004 105.307 84.3081 105.292 84.5271C105.278 84.7306 105.278 84.9077 105.278 85.8747V86.9972C105.278 87.5824 105.278 88.085 105.312 88.3579C105.334 88.535 105.374 88.675 105.581 88.7013C105.698 88.7159 105.815 88.7243 105.932 88.7265C106.008 88.7265 106.043 88.7456 106.043 88.7767C106.043 88.8079 105.988 88.8402 105.906 88.8402C105.457 88.8402 105.022 88.8222 104.829 88.8222C104.669 88.8222 104.236 88.8402 103.967 88.8402C103.871 88.8402 103.822 88.8222 103.822 88.7767C103.822 88.7313 103.85 88.7265 103.932 88.7265C104.016 88.7263 104.099 88.7178 104.181 88.7013C104.319 88.675 104.353 88.535 104.381 88.3519C104.416 88.085 104.416 87.5824 104.416 86.9972V86.4383C104.415 86.433 104.414 86.4278 104.412 86.423C104.41 86.4182 104.407 86.4139 104.403 86.4103C104.399 86.4067 104.394 86.404 104.389 86.4022C104.384 86.4004 104.379 86.3997 104.374 86.4H101.741C101.719 86.4 101.699 86.4 101.699 86.4383V86.9972C101.699 87.5824 101.699 88.085 101.734 88.3579C101.754 88.535 101.796 88.675 102.002 88.7013C102.119 88.7159 102.236 88.7243 102.354 88.7265C102.43 88.7265 102.464 88.7456 102.464 88.7767C102.464 88.8079 102.409 88.8402 102.326 88.8402C101.879 88.8402 101.444 88.8222 101.249 88.8222C101.091 88.8222 100.651 88.8402 100.381 88.8402C100.292 88.8402 100.244 88.8222 100.244 88.7767C100.244 88.7313 100.271 88.7265 100.354 88.7265C100.437 88.7263 100.52 88.7178 100.602 88.7013C100.739 88.675 100.774 88.535 100.802 88.3519C100.836 88.085 100.836 87.5824 100.836 86.9972V85.8794C100.836 84.9125 100.836 84.7354 100.823 84.5319C100.81 84.3285 100.754 84.2136 100.526 84.1729C100.437 84.1595 100.347 84.1535 100.257 84.155C100.182 84.155 100.137 84.1418 100.137 84.0975C100.137 84.0532 100.186 84.0401 100.282 84.0401C100.654 84.0401 101.089 84.0592 101.275 84.0592C101.441 84.0592 101.874 84.0401 102.144 84.0401C102.24 84.0401 102.288 84.0532 102.288 84.0975C102.288 84.1418 102.247 84.155 102.168 84.155C102.101 84.1562 102.034 84.1622 101.968 84.1729C101.782 84.2052 101.729 84.3129 101.712 84.5319C101.699 84.7354 101.699 84.9125 101.699 85.8794V86.0123C101.698 86.0181 101.699 86.0239 101.701 86.0295C101.703 86.035 101.706 86.0401 101.71 86.0443C101.714 86.0485 101.718 86.0518 101.724 86.0539C101.729 86.0561 101.735 86.057 101.741 86.0566L104.373 86.0518Z" fill="#BC8159"/>
<path d="M111.345 87.1896C111.354 86.9567 111.3 86.7257 111.187 86.5218C111.139 86.4201 110.215 85.0223 109.973 84.692C109.848 84.5053 109.685 84.3471 109.495 84.2276C109.405 84.1805 109.306 84.1524 109.205 84.1451C109.15 84.1451 109.102 84.1319 109.102 84.0876C109.102 84.0433 109.15 84.0302 109.234 84.0302C109.353 84.0302 109.874 84.0493 110.101 84.0493C110.246 84.0493 110.529 84.0302 110.84 84.0302C110.908 84.0302 110.943 84.0493 110.943 84.0876C110.943 84.1259 110.895 84.1319 110.792 84.157C110.764 84.1624 110.739 84.1773 110.722 84.1992C110.704 84.2211 110.694 84.2485 110.695 84.2767C110.709 84.3506 110.737 84.421 110.779 84.4837C110.874 84.674 111.84 86.2058 111.95 86.3842C112.02 86.231 112.887 84.8284 112.984 84.6357C113.041 84.5343 113.074 84.4214 113.081 84.3054C113.082 84.2654 113.068 84.2264 113.041 84.1968C113.014 84.1671 112.976 84.149 112.936 84.1463C112.874 84.1331 112.817 84.1211 112.817 84.0828C112.817 84.0445 112.851 84.0254 112.936 84.0254C113.164 84.0254 113.384 84.0445 113.584 84.0445C113.736 84.0445 114.191 84.0254 114.322 84.0254C114.398 84.0254 114.442 84.0386 114.442 84.0768C114.442 84.1151 114.387 84.1403 114.311 84.1403C114.206 84.1452 114.103 84.1713 114.008 84.2169C113.86 84.2885 113.732 84.3949 113.635 84.5268C113.408 84.7817 112.439 86.2753 112.319 86.5493C112.236 86.7504 112.201 86.9679 112.216 87.1848V87.7149C112.216 87.8166 112.216 88.0835 112.236 88.3504C112.251 88.5335 112.313 88.6735 112.52 88.6998C112.634 88.7142 112.749 88.7226 112.865 88.725C112.94 88.725 112.975 88.7441 112.975 88.7752C112.975 88.8063 112.92 88.8387 112.83 88.8387C112.396 88.8387 111.961 88.8207 111.776 88.8207C111.59 88.8207 111.168 88.8387 110.913 88.8387C110.816 88.8387 110.761 88.8267 110.761 88.7752C110.761 88.7441 110.797 88.725 110.872 88.725C110.952 88.7243 111.033 88.7159 111.111 88.6998C111.25 88.6735 111.312 88.5335 111.326 88.3504C111.346 88.0835 111.346 87.8166 111.346 87.7149L111.345 87.1896Z" fill="#BC8159"/>
<path d="M3.41954 59.6171H0.0806503V76.4061H1.70462V69.465H2.72902C11.0032 69.465 11.0032 65.6773 11.0032 64.4387C11.0032 62.2367 9.68803 59.6171 3.41954 59.6171ZM2.72902 69.0593H1.70462V60.0252H3.13352C6.21152 60.0252 9.49895 61.1836 9.49895 64.4351C9.49895 67.5035 7.22156 69.0593 2.72902 69.0593Z" fill="#BC8159"/>
<path d="M22.3006 60.359C23.0497 60.359 23.532 60.87 23.7749 61.922C23.9939 62.865 23.9927 64.1144 23.9927 65.2166V76.406H25.5928V65.3889C25.5928 63.5172 25.1691 62.0656 24.3362 61.0747C23.5368 60.091 22.358 59.5919 20.8465 59.5919C20.5162 59.5937 20.1863 59.6176 19.8592 59.6637L19.7958 59.6721V61.399L19.9083 61.3236C20.88 60.6833 21.6854 60.359 22.3006 60.359Z" fill="#BC8159"/>
<path d="M42.5265 64.8145C39.78 64.8145 38.6204 66.4899 38.198 67.3779C37.4105 65.0694 34.956 64.8145 33.9172 64.8145C32.5661 64.8145 31.4891 65.2034 30.625 66.0028C30.3245 66.2845 30.061 66.6034 29.8412 66.9518V65.1483H28.2184V76.406H29.8412V68.8498C29.9608 66.6873 31.8122 65.5564 33.5833 65.5564C35.2456 65.5564 36.921 66.5737 36.921 68.8463V76.406H38.545V68.8977C38.6647 66.6885 40.5172 65.5325 42.2872 65.5325C43.9483 65.5325 45.6249 66.5282 45.6249 68.7505V76.4096H47.2489V68.8702C47.2489 65.1077 43.6335 64.8145 42.5265 64.8145Z" fill="#BC8159"/>
<path d="M62.1493 59.8313H62.6029C64.4698 59.8313 65.6881 60.2801 66.3822 60.6571C66.8053 60.8855 67.173 61.2042 67.4592 61.5905L67.4808 61.6205H69.3166L69.2196 61.5008C68.8657 61.0727 68.4381 60.7112 67.9571 60.4333C66.6311 59.738 64.9748 59.4005 62.8925 59.4005C58.6656 59.4005 54.8744 61.4182 53.242 64.5465C52.685 65.6173 52.4037 66.8101 52.4235 68.017C52.4235 72.9799 56.606 76.722 62.1529 76.722C65.0993 76.722 67.6076 75.8508 69.2136 74.2687L69.2855 74.1969L68.9097 74.009L68.8714 74.0461C67.6878 75.2309 65.0418 76.1943 62.9631 76.1943C57.2798 76.1943 54.2126 71.9698 54.2126 67.9931V67.7537C54.3311 63.0924 58.4275 60.0144 62.1493 59.8313Z" fill="#BC8159"/>
<path d="M98.3948 62.3348H96.796V65.1723H95.8386V65.5756H96.796V74.6349C96.796 76.2505 98.2632 76.43 98.8951 76.43C99.5269 76.43 100.049 76.2912 100.146 76.1619L100.18 76.1164L99.9913 75.8891L99.7627 75.9752L99.6718 75.9968C99.5581 76.027 99.4411 76.0435 99.3235 76.0458C98.925 76.0458 98.3948 75.8771 98.3948 74.4254V65.5756H100.494V65.1675H98.3948V62.3348Z" fill="#BC8159"/>
<path d="M111.57 72.397C111.57 74.5643 109.593 75.7335 107.733 75.7335C106 75.7335 104.252 74.7235 104.252 72.4677V64.9103H102.629V72.3516C102.629 75.3937 105.093 76.4779 107.399 76.4779C109.053 76.4779 110.789 75.5648 111.57 74.3238V76.4061H113.194V64.9103H111.57V72.397Z" fill="#BC8159"/>
<path d="M124.362 65.6714C123.785 65.0946 122.896 64.8145 121.639 64.8145C120.013 64.8145 118.992 65.7204 118.397 66.5582V64.696H116.773V76.4061H118.397V68.8224C118.397 67.2044 119.433 65.4847 121.353 65.4847C122.231 65.4847 122.789 65.7911 123.022 66.3834L123.085 66.6228H124.88L124.853 66.5318C124.761 66.2097 124.592 65.9145 124.362 65.6714Z" fill="#BC8159"/>
<path d="M136.052 65.76C134.638 64.671 132.849 64.5525 132.145 64.5525C128.359 64.5525 126.386 66.6731 125.802 68.6573C125.613 69.2505 125.516 69.8692 125.514 70.4919V70.7312C125.507 70.8253 125.515 70.92 125.539 71.0113C125.798 73.6584 127.919 76.5019 131.976 76.5019C134.539 76.5019 136.08 75.4906 136.626 75.055C136.928 74.8103 137.204 74.5344 137.448 74.2317L137.497 74.1647L137.158 73.9768L137.119 74.0222C136.161 75.1687 134.437 75.8796 132.62 75.8796C130.171 75.8796 127.461 74.4507 127.167 70.4464H137.871L137.887 70.3961C137.915 70.2714 137.925 70.1432 137.916 70.0156V69.6805C137.917 68.035 137.254 66.6432 136.052 65.76ZM127.187 70.0371C127.185 69.3835 127.313 68.736 127.563 68.1319C128.281 66.2171 129.956 64.9845 131.834 64.9845H131.978C133.343 64.9845 134.456 65.4632 135.284 66.3895C136.122 67.3864 136.242 68.5807 136.242 69.2042V69.7762C136.244 69.8633 136.241 69.9504 136.233 70.0371H127.187Z" fill="#BC8159"/>
<path d="M18.7977 75.0789L18.9604 75.5469C19.0805 75.8897 19.229 76.222 19.4044 76.5402H21.0499C20.9303 76.2577 20.8166 75.9693 20.7184 75.6893L18.9784 70.7324L17.4573 71.2817L17.8882 72.4976C18.0629 72.9248 18.24 73.4454 18.4111 73.9492C18.4925 74.1886 18.5739 74.4279 18.6505 74.6577C17.6931 75.2776 16.19 75.9262 14.7802 75.9262C13.8635 75.9262 12.3257 75.6175 12.3257 73.5435C12.3257 71.2578 16.6543 69.8337 18.9425 69.3944L20.3606 69.1204V69.0606C20.3606 66.2506 19.7048 64.6243 16.3539 64.6243C15.9949 64.6243 15.6969 64.647 15.3966 64.6733C12.5603 64.9486 12.2851 66.3488 12.2851 66.3667V66.4385H14.0347L14.0454 66.3799C14.0863 66.1322 14.1874 65.8983 14.3398 65.6989C14.736 65.2406 15.3511 65.0084 16.1673 65.0084C18.4566 65.0084 18.8551 66.2339 18.8611 68.9792C17.4941 69.2878 16.1479 69.6824 14.8305 70.1604C13.2748 70.7444 10.6826 71.9806 10.6826 73.7099C10.6694 74.1574 10.7804 74.5998 11.0033 74.988C11.6197 75.9932 12.8535 76.5246 14.5696 76.5246C16.3647 76.5246 17.8642 75.633 18.5847 75.2082L18.7977 75.0789Z" fill="#BC8159"/>
<path d="M77.2449 75.0789L77.4077 75.5469C77.5278 75.8897 77.6763 76.222 77.8517 76.5402H79.4972C79.3775 76.2577 79.2579 75.9693 79.1657 75.6893L77.4257 70.7324L75.9046 71.2817L76.3354 72.4976C76.5102 72.9248 76.6873 73.4454 76.8584 73.9492C76.9398 74.1886 77.0212 74.4279 77.0978 74.6577C76.1404 75.2776 74.6385 75.9262 73.2275 75.9262C72.3108 75.9262 70.773 75.6175 70.773 73.5435C70.773 71.2578 75.1016 69.8337 77.3898 69.3944L78.8079 69.1204V69.0606C78.8079 66.2506 78.1521 64.6243 74.8012 64.6243C74.4422 64.6243 74.1442 64.647 73.8438 64.6733C71.0076 64.9486 70.7323 66.3488 70.7323 66.3667V66.4385H72.4831L72.4939 66.3799C72.5347 66.1322 72.6358 65.8983 72.7883 65.6989C73.1844 65.2406 73.7996 65.0084 74.6157 65.0084C76.9051 65.0084 77.3036 66.2339 77.3096 68.9792C75.9426 69.2878 74.5964 69.6824 73.279 70.1604C71.728 70.7444 69.1323 71.9806 69.1323 73.7135C69.119 74.161 69.23 74.6034 69.453 74.9916C70.0693 75.9968 71.3032 76.5282 73.0193 76.5282C74.8144 76.5282 76.3139 75.6366 77.0355 75.2118L77.2449 75.0789Z" fill="#BC8159"/>
<path d="M87.7368 64.6003C86.4539 64.6003 84.6635 65.0204 83.4931 66.192C83.3464 66.3218 83.2107 66.4635 83.0874 66.6156V64.9342H81.4647V82.0571H83.0874V74.9964C83.3925 75.2679 83.7331 75.4966 84.0999 75.6761C85.0502 76.2101 86.1213 76.4923 87.2114 76.4959C91.0924 76.4959 93.6989 74.1024 93.6989 70.5338C93.6989 67.0429 91.2468 64.6003 87.7368 64.6003ZM87.6889 76.0459C85.3983 76.0459 83.0874 74.8145 83.0874 72.0656V67.3851C83.4644 66.6252 84.4398 65.9024 85.1937 65.5482C85.8246 65.2536 86.5153 65.1094 87.2114 65.1269C90.4665 65.1269 92.1707 67.9991 92.1707 70.8497C92.1707 73.3545 90.7681 76.0459 87.6889 76.0459Z" fill="#BC8159"/>
<path d="M68.9982 0.114258C54.659 0.114258 42.9932 11.78 42.9932 26.1193C42.9932 40.4586 54.659 52.1243 68.9982 52.1243C83.3375 52.1243 95.0033 40.4586 95.0033 26.1193C95.0033 11.78 83.3375 0.114258 68.9982 0.114258ZM93.9466 26.1193C93.9466 39.8817 82.7547 51.0664 68.9982 51.0664C55.2418 51.0664 44.0511 39.8758 44.0511 26.1193C44.0511 12.3628 55.243 1.17217 68.9982 1.17217C82.7535 1.17217 93.9466 12.3628 93.9466 26.1193Z" fill="#BC8159"/>
<path d="M84.7114 18.6325C84.7104 17.7536 84.5924 16.8787 84.3607 16.0308C83.8306 14.0777 82.7009 12.3867 81.1822 11.2666C79.8491 10.2853 78.0192 9.7276 76.0363 9.69768C73.3484 9.6558 70.6282 10.3331 67.9954 10.9854L67.8374 11.0249C67.3216 11.1529 66.7963 11.2917 66.2685 11.4353C66.4863 11.1505 66.7149 10.8729 66.9566 10.612L68.1534 10.7173L68.2024 10.15L67.4784 10.0866C67.7357 9.84727 68.0038 9.61511 68.2754 9.40448L69.4722 9.5086L69.5212 8.94254L68.9947 8.89707C69.5767 8.51569 70.1963 8.19489 70.8436 7.93968L71.0901 7.84394L70.8388 7.20129L70.5935 7.29823C68.3833 8.18115 66.5017 9.72829 65.2082 11.7261H65.1891V11.7501C64.2092 13.2519 63.5567 14.9433 63.2743 16.7141C62.5742 14.4104 60.5433 9.5828 55.6331 8.49736L55.3698 8.4459L55.2215 9.11846L55.48 9.17591L55.5374 9.18787L55.3675 9.21779L55.4644 9.77786L56.7162 9.55886C57.1975 9.75297 57.6588 9.99345 58.0936 10.2769L57.4127 10.3966L57.5108 10.9554L58.7315 10.7424C59.0026 10.9597 59.2615 11.1918 59.507 11.4377L58.6585 11.5849L58.7566 12.145L59.9701 11.9332C60.1508 12.1414 60.3291 12.3604 60.4955 12.5866L59.5728 12.7482L59.6709 13.307L60.8557 13.1012C61.0292 13.3633 61.1968 13.6385 61.3547 13.921L60.3866 14.0897L60.4847 14.6498L61.6359 14.4487C61.7496 14.6749 61.8573 14.9047 61.9591 15.1344L61.0184 15.2984L61.1166 15.8585L62.1793 15.6718C62.2738 15.9111 62.3624 16.1505 62.4437 16.3958L61.6336 16.537L61.4349 16.5729L61.5318 17.1318L62.6173 16.9415C62.7369 17.3412 62.8411 17.7493 62.9272 18.1574C62.3481 17.6492 61.7042 17.2198 61.0125 16.8805L60.9311 16.841C57.0046 14.9645 52.6341 15.9267 50.3771 16.6675L50.127 16.75L50.3412 17.4046L50.5925 17.3209C50.8019 17.2527 51.0161 17.1868 51.2327 17.1246L50.9024 17.559L51.356 17.9025L52.1231 16.8913C52.5683 16.7859 53.0183 16.6986 53.4646 16.6292L53.0278 17.2036L53.4814 17.5483L54.2557 16.5251C54.6386 16.4844 55.0192 16.458 55.3902 16.4473L54.9283 17.0552L55.3806 17.3987L56.1058 16.4413C56.4134 16.4473 56.7222 16.4652 57.0237 16.4927L56.49 17.1976L56.9424 17.5411L57.6772 16.5717C57.9656 16.6148 58.248 16.6687 58.522 16.7309L57.962 17.4693L58.4143 17.8127L59.118 16.8853C59.3861 16.9631 59.6518 17.0528 59.9091 17.1509L59.2664 17.9982L59.7188 18.3417L60.4524 17.3759L60.6331 17.4597L60.7097 17.4968C60.8676 17.5746 61.0232 17.6572 61.1824 17.7505L60.5338 18.605L60.9873 18.9484L61.6635 18.0557C62.0183 18.2931 62.354 18.558 62.6675 18.8479C59.4914 19.2201 56.2889 21.4376 53.8644 24.9513L53.7112 25.1727L53.9996 25.3629L54.0642 25.406L54.282 25.558L54.4328 25.339C54.6171 25.0721 54.8122 24.8053 55.0312 24.5276L55.2227 25.3282L55.7755 25.1966L55.4811 23.9639C55.7205 23.6827 55.9598 23.4063 56.2147 23.143L56.411 23.9651L56.9639 23.8323L56.6863 22.6834C56.9256 22.4537 57.1709 22.2335 57.4151 22.0276L57.6281 22.918L58.181 22.7876L57.9057 21.6351C58.1714 21.4317 58.4443 21.2402 58.7159 21.0643L58.9325 21.9678L59.4842 21.8362L59.2257 20.7507C59.4399 20.631 59.6649 20.5114 59.8947 20.3989L60.134 21.3922L60.6881 21.2617L60.4237 20.1583C60.6558 20.0626 60.8964 19.974 61.1417 19.8951L61.381 20.8979L61.9327 20.7651L61.6862 19.7335C61.9937 19.6559 62.3054 19.596 62.6197 19.554C61.1956 24.7933 58.8476 33.3571 55.6367 45.0289L55.6307 45.0504L55.6415 45.0719C55.7053 45.1844 55.746 45.3085 55.7612 45.437V45.498H56.3835L56.4002 45.4645C56.5582 45.1473 58.9313 36.6398 63.6513 19.4666C63.7978 19.4514 63.9458 19.4631 64.0881 19.5013C64.4584 19.5248 64.8264 19.576 65.1891 19.6545L65.0167 20.7316L65.578 20.8213L65.7419 19.7933C65.9693 19.8568 66.1728 19.9238 66.3607 19.9956L66.4708 20.0411L66.296 21.1313L66.8573 21.2198L67.0081 20.2732C67.2355 20.3785 67.4617 20.4922 67.6831 20.6143L67.4964 21.7859L68.0576 21.8756L68.2108 20.9183C68.5172 21.1061 68.8187 21.3072 69.1072 21.5166L68.9229 22.6655L69.4853 22.7552L69.6194 21.9092C69.8791 22.115 70.1411 22.3388 70.4008 22.5733L70.2094 23.7557L70.7706 23.8455L70.8975 23.0449C71.1496 23.289 71.3929 23.5359 71.6275 23.7856L71.4384 24.9752L71.9997 25.0637L72.1193 24.3266C72.3252 24.5659 72.5286 24.8053 72.7249 25.0374L72.525 26.2904L73.0863 26.379L73.206 25.6346C73.4381 25.9314 73.6727 26.2401 73.924 26.5752L74.0808 26.787L74.6349 26.379L74.4781 26.1659C72.8027 23.8921 70.1603 20.7124 66.6096 19.3541C66.4121 19.2787 66.2099 19.2093 66.0112 19.1483L66.3068 18.9089L65.5888 18.0305C65.8018 17.8953 66.0232 17.7649 66.2494 17.6404L67.0177 18.5774L67.4569 18.2184L66.764 17.3723C66.9866 17.2622 67.2187 17.1569 67.4545 17.0588L68.2024 17.9719L68.6416 17.6129L68.011 16.8422C68.3065 16.7345 68.6093 16.6375 68.9121 16.5526L69.6517 17.4561L70.0909 17.0971L69.5045 16.3898C69.7965 16.324 70.0945 16.2701 70.3925 16.2235L71.1356 17.1294L71.5748 16.7704L71.0614 16.1421C71.3989 16.111 71.7412 16.093 72.081 16.0894L72.8661 17.0468L73.3053 16.6878L72.8266 16.1062C73.2681 16.1305 73.7076 16.1813 74.143 16.2582L74.9018 17.1856L75.3421 16.8266L75.0382 16.4544C75.4835 16.5724 75.9205 16.7199 76.3462 16.896L76.5856 16.9978L76.85 16.3623L76.6107 16.2606C72.9212 14.7288 68.3927 15.3032 64.909 17.6368L64.9569 17.0851L63.9229 16.9954C63.96 16.7488 64.0043 16.5023 64.0557 16.2594L65.1651 16.3563L65.2142 15.7903L64.1874 15.7005C64.2496 15.4612 64.3202 15.2218 64.3956 14.9825L65.5588 15.0842L65.6079 14.5169L64.5919 14.4284C64.7116 14.1196 64.8384 13.8156 64.9772 13.5224L66.1656 13.6266L66.2159 13.0605L65.2585 12.9767C65.2896 12.9193 65.3231 12.8571 65.3542 12.8068C67.628 11.9619 70.1806 11.3707 73.1581 10.989C75.3122 10.7185 77.7859 10.5749 79.8598 11.5766C83.5841 13.3717 84.1106 17.5602 83.4297 20.6035C83.0156 22.4573 82.069 24.323 80.6927 26.0008C79.7797 27.1183 78.7109 28.0989 77.519 28.9124C77.1839 29.1398 76.85 29.378 76.5269 29.6089C76.0087 29.9799 75.4726 30.3641 74.9197 30.7075C71.6179 32.7587 68.2048 33.9292 65.0466 34.0907H64.97C63.2527 34.19 62.7561 33.9986 62.6412 33.8203C62.6212 33.7843 62.6117 33.7435 62.6138 33.7025C62.616 33.6614 62.6296 33.6218 62.6532 33.5881C62.9739 32.9778 63.9038 32.5266 64.5835 32.1975C64.7151 32.1329 64.8408 32.0778 64.9521 32.0156C65.4033 31.7834 65.8712 31.5668 66.3236 31.3574L66.8597 31.1085C69.0677 30.0721 71.369 29.2415 73.3532 28.545L74.6468 28.0939L75.4738 27.8067C75.6174 27.7564 75.773 27.7097 75.9369 27.6607C76.4156 27.5182 76.953 27.3579 77.3203 27.0479C77.4274 26.9701 77.5026 26.8562 77.5322 26.7272C77.5449 26.6754 77.5432 26.6211 77.5271 26.5702C77.5111 26.5194 77.4814 26.4739 77.4412 26.4388C77.1349 26.1863 76.1476 26.5082 75.4319 26.7727L75.3278 26.811L74.386 27.1341L73.2838 27.5194C71.9877 27.967 70.5971 28.4565 69.2149 29.007C67.3157 29.7597 65.1352 30.6716 63.2839 31.9533L63.2001 32.0108C62.7932 32.292 62.3707 32.584 62.0404 32.9574C61.7101 33.3308 61.5127 33.9411 61.8406 34.427C62.1386 34.8686 62.7681 35.1055 63.7661 35.145C63.9002 35.151 64.0366 35.1546 64.1754 35.1546C65.2358 35.1368 66.291 35.0015 67.3216 34.7513C71.6595 33.7864 75.6896 31.7586 79.0496 28.8502C82.8074 25.5843 84.7114 22.1449 84.7114 18.6325ZM64.4435 18.8371C64.6553 18.6672 64.8755 18.5021 65.1005 18.3441L65.6869 19.0621C65.2787 18.956 64.863 18.8808 64.4435 18.8371ZM63.7937 18.4781C63.8032 18.1741 63.8236 17.8654 63.8559 17.5566L64.8935 17.6476C64.5118 17.9051 64.1446 18.1836 63.7937 18.4817V18.4781Z" fill="#BC8159"/>
<path d="M88.9478 30.5784C88.6403 30.4216 88.4057 30.5963 88.2717 30.7519L88.2454 30.783C88.2062 30.8315 88.1717 30.8836 88.1424 30.9386L88.1293 30.9219C87.1444 32.103 86.0111 33.3584 84.6958 34.3661C83.5554 35.2397 82.4412 35.6095 81.3845 35.4659C80.8364 35.3917 80.3888 35.1547 80.1243 34.7969C80.0042 34.6268 79.9201 34.434 79.8771 34.2303C79.8341 34.0266 79.8331 33.8162 79.8742 33.6121C80.0308 32.637 80.4381 31.7192 81.0561 30.9489C81.6742 30.1785 82.4818 29.582 83.3998 29.2177C83.3998 29.2177 84.3153 28.8838 84.064 28.2089L84.0077 28.222C82.7558 28.503 81.6026 29.1156 80.6688 29.9956C79.423 31.1684 78.6643 32.6284 78.6344 33.9101C78.6129 34.9525 79.1394 35.7902 80.1183 36.2701C80.6083 36.5103 81.1475 36.6333 81.6932 36.6291C82.531 36.6291 83.4668 36.3682 84.5151 35.8464C85.2694 35.4569 85.9589 34.9531 86.5592 34.3529C87.5411 33.3793 88.3865 32.277 89.0723 31.0762C89.1087 30.991 89.1162 30.8963 89.0937 30.8064C89.0713 30.7165 89.02 30.6365 88.9478 30.5784Z" fill="#BC8159"/>
</svg>
