<svg width="15" height="41" viewBox="0 0 15 41" fill="none" xmlns="http://www.w3.org/2000/svg">
<path d="M6.86727 13.7215C8.24891 11.2813 9.06395 8.74871 8.54134 7.33036C7.85366 5.53111 5.20483 5.35201 4.93521 7.531C4.70344 9.41039 5.48552 11.6929 6.86727 13.7215ZM1.58731 6.91402C1.23457 10.0386 3.22729 14.1901 4.90067 16.8751C5.43068 16.0876 5.98987 15.2191 6.52674 14.3098C4.56138 11.4844 3.1321 8.64634 4.64405 6.17834C6.33796 3.60237 8.92486 4.90661 9.37531 7.07296C9.98467 8.73607 8.78327 11.6281 7.25741 14.2791C7.79723 15.0312 8.37456 15.7618 8.94345 16.4589C10.6588 13.6503 12.4249 10.1789 12.3347 7.22719C12.2326 3.10176 9.62395 1.69107 7.0042 1.67624C4.38354 1.75045 1.7525 3.22102 1.58731 6.91402ZM1.25065 14.1075C0.98764 14.7467 0.931656 15.4104 1.01968 16.0842C1.1103 16.7782 1.35382 17.4908 1.68343 18.2063C1.96024 18.8085 2.29939 19.4132 2.66183 20.0162C3.06427 19.4806 3.72493 18.5869 4.47886 17.4941C3.6799 16.1811 2.80091 14.5491 2.11403 12.8101C1.71329 13.2327 1.43226 13.6659 1.25065 14.1075ZM1.69607 22.7922C1.37115 23.5073 1.13299 24.2195 1.04669 24.9134C0.963236 25.5869 1.02344 26.2505 1.28849 26.8905C1.47136 27.3317 1.75204 27.7637 2.15026 28.1863C2.83077 26.4574 3.71021 24.8414 4.51339 23.5448C3.74817 22.4345 3.07316 21.5255 2.66432 20.9836C2.30486 21.5863 1.96911 22.19 1.69607 22.7922ZM6.87012 27.282C5.49863 29.311 4.74643 31.5907 4.96508 33.4735C5.22092 35.6622 7.81192 35.4868 8.52447 33.6753C9.06942 32.2666 8.24345 29.7227 6.87012 27.282ZM1.65812 34.0191C1.8469 37.713 4.43119 39.1945 7.00374 39.2678C9.57551 39.2539 12.1357 37.8323 12.2626 33.7061C12.3672 30.7682 10.6533 27.3191 8.956 24.5191C8.38209 25.2241 7.79975 25.9627 7.25742 26.7237C8.77439 29.3755 9.95219 32.2674 9.3475 33.9323C8.89535 36.1004 6.35654 37.407 4.68237 34.827C3.18478 32.3555 4.57919 29.5192 6.53143 26.693C5.9891 25.7701 5.42273 24.8886 4.88587 24.0913C3.22651 26.7756 1.29193 30.9051 1.65812 34.0191ZM13.2154 27.2281C13.4943 26.5556 13.5567 25.8579 13.4686 25.1486C13.3781 24.418 13.1273 23.6683 12.7851 22.9152C12.5016 22.2912 12.1245 21.6806 11.7405 21.062C11.2547 21.7363 10.6352 22.4884 9.96232 23.2996C9.75586 23.5485 9.54381 23.8036 9.32937 24.0635C10.3124 25.7558 11.1948 27.43 11.8366 29.0384C12.5143 28.4526 12.9575 27.8497 13.2154 27.2281ZM7.51779 19.8969C7.40322 20.0844 7.28819 20.2719 7.17362 20.4594C7.17144 20.4632 7.16815 20.4674 7.16472 20.4725C7.16598 20.4741 7.16724 20.4759 7.16816 20.4776C7.28273 20.6651 7.39776 20.8525 7.51233 21.0397C8.01715 21.8643 8.51695 22.6835 8.99772 23.4968C9.16416 23.2949 9.32903 23.0964 9.49034 22.9013C10.2282 22.0119 10.9007 21.1948 11.3857 20.4999C10.9032 19.8058 10.2332 18.9892 9.49581 18.1005C9.3281 17.8978 9.15664 17.6914 8.98347 17.4815C8.50772 18.2813 8.0143 19.0866 7.51779 19.8969ZM6.88154 19.7638C6.9195 19.7018 6.95746 19.6403 6.99531 19.5783C7.46855 18.8059 8.0265 17.9438 8.60074 17.0168C8.03744 16.3286 7.46216 15.6064 6.91698 14.858C6.37887 15.7572 5.80109 16.6299 5.24782 17.4258C5.93893 18.5005 6.54783 19.3259 6.88154 19.7638ZM5.2297 23.5406C5.79016 24.3467 6.37592 25.232 6.91904 26.1447C7.46729 25.3876 8.04747 24.6569 8.61602 23.9611C8.03618 23.0185 7.47026 22.1424 6.99029 21.3586C6.95233 21.2967 6.91448 21.2348 6.87652 21.1729C6.54021 21.6149 5.92423 22.4517 5.2297 23.5406ZM2.99518 20.4999C3.41267 21.0482 4.09408 21.9394 4.85348 23.0059C5.64981 21.7691 6.3237 20.8872 6.56848 20.5724C6.35403 20.2947 5.65403 19.3648 4.81677 18.039C4.07049 19.0858 3.40469 19.9596 2.99518 20.4999ZM12.7987 18.0832C13.1454 17.3299 13.4017 16.5797 13.4973 15.849C13.59 15.1399 13.5319 14.4421 13.2549 13.77C12.9972 13.1442 12.5496 12.5378 11.8602 11.9488C11.202 13.5556 10.3066 15.2268 9.31761 16.9147C9.53878 17.1831 9.7571 17.4457 9.96984 17.7019C10.6428 18.5127 11.2602 19.264 11.7431 19.9377C12.1299 19.3187 12.5108 18.7082 12.7987 18.0832ZM12.9609 7.12355C12.9992 8.39143 12.6659 9.82961 12.0983 11.3424C12.9006 12.0031 13.4193 12.7009 13.7207 13.4354C14.0497 14.2373 14.1189 15.0733 14.0079 15.9224C13.8996 16.7496 13.6203 17.5788 13.244 18.3993C12.9212 19.1022 12.5816 19.8249 12.1295 20.4999C12.5782 21.1737 12.9137 21.8964 13.2313 22.5988C13.6027 23.4183 13.8752 24.2473 13.9776 25.0744C14.0826 25.9231 14.0079 26.7595 13.676 27.5618C13.3738 28.2926 12.8589 28.9874 12.0688 29.6461C12.6116 31.1373 12.9251 32.5553 12.8808 33.8081C12.7434 38.721 9.98639 40.4672 7.16097 40.54C4.33634 40.5005 1.44321 38.7871 1.04373 34.1856C0.849932 32.5531 1.26069 30.6202 1.92648 28.7784C1.42554 28.2748 1.07577 27.7502 0.851181 27.2062C0.535036 26.4423 0.464355 25.6475 0.563767 24.8418C0.660222 24.0559 0.919351 23.2692 1.27209 22.4906C1.57421 21.8214 1.94541 21.1581 2.34078 20.4995C1.9421 19.8408 1.56703 19.1768 1.25989 18.5072C0.90248 17.7281 0.637526 16.9409 0.534685 16.155C0.429807 15.3489 0.495473 14.5541 0.808531 13.7911C1.03187 13.2454 1.3829 12.7194 1.88817 12.2155C1.20677 10.3433 0.777411 8.38424 0.964495 6.74552C1.3341 2.14571 4.28413 0.446232 7.16427 0.404961C10.0453 0.478722 12.8564 2.21103 12.9609 7.12355Z" fill="#C75066"/>
</svg>
