<svg width="104" height="15" viewBox="0 0 104 15" fill="none" xmlns="http://www.w3.org/2000/svg">
<path d="M58.8915 6.56948C58.3514 7.06262 58.0882 7.65925 58.0882 8.3871C58.0882 9.12971 58.4024 9.80543 59.049 10.4518C59.6986 11.1014 60.5403 11.4167 61.622 11.4167C62.5085 11.4167 63.3725 11.3133 64.1897 11.1087C64.758 10.9651 65.3527 10.7915 65.9658 10.5902C64.8308 9.96922 63.7291 9.32114 62.6809 8.65693C61.4842 7.90053 60.2105 7.19874 58.8915 6.56948H58.8915ZM45.1079 6.56948C43.7846 7.20114 42.5113 7.90294 41.3196 8.65693C40.2715 9.32114 39.1696 9.96925 38.0343 10.5902C38.6487 10.7925 39.2432 10.966 39.8099 11.1087C40.6279 11.3134 41.4916 11.4168 42.3772 11.4168C43.4445 11.4168 44.3108 11.0924 44.9511 10.4518C45.5977 9.80452 45.9122 9.12887 45.9122 8.38713C45.9122 7.65928 45.6486 7.0618 45.1079 6.56951L45.1079 6.56948ZM31.8227 10.3556C30.9744 10.1534 30.0886 10.0506 29.1897 10.0506C28.051 10.0506 27.0714 10.1924 26.2775 10.472C25.3769 10.7883 25.2726 11.2432 25.2726 11.5576C25.2726 12.3167 25.5015 13.1886 27.286 13.1886C28.3231 13.1886 29.4431 12.9229 30.6134 12.4014C31.5901 11.9603 32.5817 11.4256 33.5708 10.8079C33.0197 10.6537 32.4417 10.5038 31.8227 10.3556ZM73.3852 12.4005C74.5572 12.9229 75.677 13.1886 76.7139 13.1886C78.4988 13.1886 78.727 12.3167 78.727 11.557C78.727 11.2432 78.6236 10.7882 77.7212 10.472C76.9289 10.1924 75.9494 10.0506 74.8106 10.0506C73.9118 10.0506 73.0257 10.1534 72.178 10.3556C71.5593 10.5038 70.9815 10.6531 70.4295 10.8079C71.4184 11.4256 72.4094 11.9603 73.3852 12.4005H73.3852ZM100.897 12.6483C100.094 13.1813 99.2018 13.5816 98.2463 13.8383C97.2928 14.1016 96.362 14.2345 95.4808 14.2345C92.5647 14.2345 89.8847 13.6671 87.5143 12.548C85.1581 11.4346 82.8424 10.2136 80.6337 8.91846C78.4214 7.62256 76.1081 6.41218 73.7559 5.32242C71.4567 4.25308 68.9106 3.71102 66.1892 3.71102C65.298 3.71102 64.2579 3.83496 63.0992 4.08028C62.2154 4.27098 61.3986 4.58723 60.6623 5.02414C61.9872 5.64443 63.2926 6.33882 64.552 7.09443C65.953 7.93636 67.2953 8.8199 68.5448 9.72381C69.5825 9.40848 70.591 9.12708 71.5462 8.88759C72.5904 8.62915 73.689 8.49801 74.8106 8.49801C76.0325 8.49801 77.291 8.71801 78.5535 9.15241C80.2929 9.754 80.6581 10.9309 80.6581 11.8128C80.6581 12.5081 80.3858 13.4536 79.0856 14.0151C78.1305 14.4211 77.3128 14.6176 76.5867 14.6176C75.118 14.6176 73.5995 14.3313 72.0744 13.7666C70.6505 13.24 69.2118 12.5586 67.7948 11.7387C66.9299 12.0483 65.996 12.3288 65.0162 12.574C63.9861 12.8333 62.9731 12.9652 62.0048 12.9652C60.2203 12.9652 58.8293 12.5253 57.87 11.658C56.9006 10.7803 56.4089 9.72226 56.4089 8.51178C56.4089 7.44733 56.6989 6.5263 57.2724 5.76585C56.3939 5.44223 55.4988 5.15125 54.6044 4.90022C53.7602 4.66385 52.8841 4.52361 52.0003 4.48451C51.9235 4.48777 51.847 4.49269 51.7724 4.49753C51.6792 4.50406 51.5881 4.51138 51.512 4.51707C50.7929 4.57908 50.0808 4.70789 49.3957 4.90022C48.5019 5.15125 47.606 5.44222 46.725 5.76585C47.3003 6.52545 47.5914 7.44643 47.5914 8.51175C47.5914 9.72221 47.0996 10.7803 46.1298 11.658C45.171 12.5253 43.7797 12.9652 41.995 12.9652C41.0274 12.9652 40.0143 12.8333 38.9845 12.574C38.005 12.3296 37.0699 12.0482 36.2013 11.7387C34.7893 12.557 33.3513 13.2393 31.9248 13.7665C30.4008 14.3313 28.883 14.6175 27.4136 14.6184C26.687 14.6184 25.8697 14.4211 24.9125 14.0144C23.6112 13.4519 23.3378 12.5065 23.3378 11.8128C23.3378 10.9318 23.7038 9.75555 25.447 9.15241C26.7088 8.71799 27.968 8.49798 29.1897 8.49798C30.3238 8.49798 31.4273 8.65274 32.4697 8.95772C33.4307 9.23887 34.3951 9.53877 35.3389 9.85015C36.5656 9.00975 37.8865 8.12955 39.372 7.16203C40.63 6.35351 41.9569 5.6338 43.3248 5.01589C42.592 4.58391 41.7798 4.27008 40.9024 4.081C39.7422 3.83492 38.7018 3.71096 37.8098 3.71096C35.0893 3.71096 32.5438 4.25305 30.2435 5.32239C27.8924 6.41216 25.5787 7.62172 23.3671 8.91843C21.1584 10.2135 18.8431 11.4346 16.486 12.5488C14.1156 13.6671 11.435 14.2345 8.51816 14.2345C7.63696 14.2345 6.70655 14.1015 5.75522 13.8391C4.79777 13.5815 3.90553 13.1804 3.10329 12.6483C2.3008 12.1151 1.64112 11.433 1.14203 10.6204C0.642706 9.80052 0.389526 8.8353 0.389526 7.75131C0.389526 6.84255 0.662944 5.90271 1.20218 4.95639C1.7364 4.01833 2.49885 3.18777 3.4664 2.49005C4.41912 1.79403 5.51557 1.20059 6.72567 0.72622C7.95751 0.244526 9.3285 0 10.8008 0C12.8214 0 14.4138 0.410009 15.5331 1.21774C16.6953 2.05313 17.2845 3.14213 17.2845 4.45355C17.2845 6.19865 16.54 7.54926 15.0711 8.46865C13.6572 9.35225 12.0498 9.79968 10.2942 9.79968C7.85392 9.79968 6.23974 8.95113 5.49626 7.27861L6.10648 6.8099C6.48828 7.11726 7.00502 7.39513 7.6423 7.63476C8.27241 7.87114 8.90907 7.99175 9.53444 7.99175C10.906 7.99175 12.3219 7.66164 13.7434 7.01207C15.0813 6.40073 15.7318 5.64759 15.7318 4.70867C15.7318 3.66541 15.3163 2.90491 14.4634 2.38247C13.5599 1.83393 12.4132 1.55592 11.055 1.55592C10.0804 1.55592 9.05319 1.72064 8.00073 2.04505C6.94999 2.36617 5.96265 2.8397 5.06566 3.45267C4.16901 4.06314 3.43192 4.73885 2.87312 5.46259C2.33268 6.15299 2.06987 6.90124 2.06987 7.75134C2.06987 8.82717 2.50374 9.7483 3.39515 10.5666C4.2892 11.3817 5.67133 11.7949 7.50301 11.7949C10.0584 11.7949 12.4818 11.314 14.7062 10.3677C16.9782 9.39943 19.3168 8.31375 21.6576 7.14088C24.0203 5.9623 26.5291 4.87011 29.1147 3.89441C31.7138 2.91146 34.6392 2.41349 37.8098 2.41349C39.0165 2.41349 40.3054 2.56423 41.6426 2.86251C42.9241 3.15439 44.0853 3.66708 45.0977 4.38756C46.9827 3.63937 48.8397 3.20081 50.6282 3.08184L50.6251 3.06547L51.1407 3.05575C51.2556 3.05171 51.3704 3.05008 51.4805 3.04844C51.6445 3.04515 51.8327 3.04104 51.9886 3.0362C52.0161 3.03535 52.0441 3.03536 52.0726 3.03536C52.1628 3.03536 52.264 3.03863 52.3736 3.04681C54.4661 3.04756 56.6616 3.49834 58.9025 4.38671C59.9149 3.66711 61.0759 3.15442 62.3583 2.86254C63.6948 2.56426 64.9838 2.41352 66.1892 2.41352C69.3606 2.41352 72.2863 2.91146 74.8856 3.89441C77.4718 4.87011 79.9807 5.9623 82.3426 7.14164C84.6804 8.31211 87.0188 9.39788 89.293 10.3669C91.518 11.314 93.942 11.795 96.4971 11.795C98.3294 11.795 99.7112 11.3817 100.603 10.5675C101.496 9.74918 101.931 8.82717 101.931 7.75134C101.931 6.91431 101.66 6.14407 101.125 5.4602C100.569 4.73886 99.831 4.06314 98.9336 3.45182C98.0386 2.84058 97.0506 2.36695 95.9968 2.04508C94.9469 1.72067 93.9199 1.55598 92.9453 1.55598C91.5873 1.55598 90.4404 1.83397 89.5382 2.38171C88.6833 2.90418 88.2676 3.66546 88.2676 4.7087C88.2676 5.64687 88.9179 6.40076 90.2571 7.0121C91.6786 7.66167 93.0943 7.99178 94.4653 7.99178C95.0914 7.99178 95.7278 7.87117 96.3578 7.63479C96.9962 7.39438 97.512 7.11729 97.8919 6.80993L98.5032 7.27861C97.7599 8.95111 96.1452 9.79968 93.7056 9.79968C91.9509 9.79968 90.3436 9.35228 88.9276 8.46868C87.4598 7.54929 86.7155 6.19783 86.7155 4.45358C86.7155 3.14218 87.3048 2.05316 88.4663 1.21777C89.5854 0.41004 91.1774 2.95639e-05 93.1995 2.95639e-05C94.5883 2.95639e-05 95.9357 0.243756 97.2039 0.72462C98.4567 1.19657 99.5767 1.79077 100.53 2.48842C101.5 3.18694 102.263 4.0175 102.798 4.95642C103.337 5.90518 103.61 6.84499 103.61 7.75134C103.61 8.83533 103.358 9.80058 102.857 10.6211C102.359 11.4331 101.699 12.1151 100.897 12.6484V12.6483Z" fill="#B27950"/>
</svg>
