<svg width="104" height="15" viewBox="0 0 104 15" fill="none" xmlns="http://www.w3.org/2000/svg">
<path d="M58.8915 6.56924C58.3514 7.06238 58.0882 7.659 58.0882 8.38686C58.0882 9.12947 58.4024 9.80518 59.049 10.4515C59.6986 11.1012 60.5403 11.4165 61.622 11.4165C62.5085 11.4165 63.3725 11.3131 64.1897 11.1084C64.758 10.9649 65.3527 10.7913 65.9658 10.59C64.8308 9.96897 63.7291 9.32089 62.6809 8.65669C61.4842 7.90028 60.2104 7.1985 58.8915 6.56924ZM45.1079 6.56924C43.7846 7.20089 42.5113 7.9027 41.3196 8.65669C40.2715 9.32089 39.1696 9.969 38.0343 10.59C38.6487 10.7922 39.2432 10.9658 39.8099 11.1084C40.6279 11.3131 41.4916 11.4165 42.3772 11.4165C43.4445 11.4165 44.3108 11.0921 44.9511 10.4515C45.5977 9.80427 45.9122 9.12863 45.9122 8.38689C45.9122 7.65903 45.6487 7.06153 45.1079 6.56924ZM31.8227 10.3553C30.9744 10.1531 30.0886 10.0504 29.1897 10.0504C28.051 10.0504 27.0714 10.1922 26.2775 10.4718C25.3769 10.788 25.2726 11.243 25.2726 11.5574C25.2726 12.3164 25.5015 13.1883 27.286 13.1883C28.3231 13.1883 29.4431 12.9226 30.6134 12.4011C31.5901 11.9601 32.5817 11.4253 33.5708 10.8077C33.0197 10.6535 32.4417 10.5035 31.8227 10.3553ZM73.3852 12.4002C74.5572 12.9227 75.677 13.1884 76.7139 13.1884C78.4988 13.1884 78.727 12.3164 78.727 11.5567C78.727 11.243 78.6236 10.788 77.7212 10.4718C76.9289 10.1922 75.9494 10.0504 74.8106 10.0504C73.9118 10.0504 73.0257 10.1532 72.178 10.3554C71.5593 10.5036 70.9815 10.6528 70.4295 10.8077C71.4184 11.4253 72.4094 11.9601 73.3852 12.4002ZM100.897 12.6481C100.094 13.1811 99.2018 13.5813 98.2463 13.838C97.2928 14.1013 96.362 14.2343 95.4808 14.2343C92.5647 14.2343 89.8847 13.6669 87.5143 12.5477C85.1581 11.4343 82.8424 10.2133 80.6337 8.91821C78.4214 7.62232 76.1081 6.41194 73.7559 5.32217C71.4567 4.25284 68.9106 3.71078 66.1892 3.71078C65.298 3.71078 64.2579 3.83472 63.0992 4.08003C62.2154 4.27074 61.3986 4.58699 60.6623 5.02389C61.9872 5.64418 63.2926 6.33857 64.552 7.09419C65.953 7.93611 67.2953 8.81965 68.5448 9.72357C69.5825 9.40824 70.591 9.12684 71.5462 8.88735C72.5904 8.62891 73.689 8.49776 74.8106 8.49776C76.0325 8.49776 77.291 8.71777 78.5535 9.15216C80.2929 9.75376 80.6581 10.9307 80.6581 11.8125C80.6581 12.5078 80.3858 13.4534 79.0856 14.0149C78.1305 14.4208 77.3128 14.6173 76.5867 14.6173C75.118 14.6173 73.5995 14.3311 72.0744 13.7663C70.6505 13.2397 69.2118 12.5583 67.7948 11.7384C66.9299 12.048 65.996 12.3286 65.0162 12.5738C63.9861 12.8331 62.9731 12.965 62.0048 12.965C60.2203 12.965 58.8293 12.525 57.87 11.6577C56.9006 10.7801 56.4089 9.72202 56.4089 8.51154C56.4089 7.44709 56.6989 6.52606 57.2724 5.76561C56.3939 5.44199 55.4988 5.15101 54.6044 4.89997C53.7602 4.66361 52.8841 4.52337 52.0003 4.48426C51.9235 4.48753 51.847 4.49245 51.7724 4.49728C51.6792 4.50381 51.5881 4.51114 51.512 4.51682C50.7929 4.57883 50.0808 4.70764 49.3957 4.89997C48.5019 5.15101 47.606 5.44197 46.725 5.76561C47.3003 6.5252 47.5914 7.44619 47.5914 8.51151C47.5914 9.72197 47.0996 10.78 46.1298 11.6577C45.171 12.525 43.7797 12.9649 41.995 12.9649C41.0274 12.9649 40.0143 12.8331 38.9845 12.5737C38.005 12.3294 37.0699 12.048 36.2013 11.7384C34.7893 12.5568 33.3513 13.239 31.9248 13.7663C30.4008 14.331 28.883 14.6173 27.4136 14.6182C26.687 14.6182 25.8697 14.4208 24.9125 14.0142C23.6112 13.4516 23.3378 12.5063 23.3378 11.8125C23.3378 10.9316 23.7038 9.75531 25.447 9.15216C26.7088 8.71775 27.968 8.49773 29.1897 8.49773C30.3238 8.49773 31.4273 8.65249 32.4697 8.95748C33.4307 9.23863 34.3951 9.53852 35.3389 9.8499C36.5656 9.00951 37.8865 8.12931 39.372 7.16178C40.63 6.35326 41.9569 5.63356 43.3248 5.01565C42.592 4.58367 41.7798 4.26984 40.9024 4.08076C39.7422 3.83467 38.7018 3.71072 37.8098 3.71072C35.0893 3.71072 32.5438 4.25281 30.2435 5.32214C27.8924 6.41191 25.5787 7.62147 23.3671 8.91818C21.1584 10.2133 18.8431 11.4343 16.486 12.5486C14.1156 13.6669 11.435 14.2343 8.51816 14.2343C7.63696 14.2343 6.70655 14.1013 5.75522 13.8388C4.79777 13.5813 3.90553 13.1802 3.10329 12.6481C2.3008 12.1148 1.64112 11.4328 1.14203 10.6202C0.642706 9.80027 0.389526 8.83505 0.389526 7.75107C0.389526 6.8423 0.662944 5.90247 1.20218 4.95615C1.7364 4.01808 2.49885 3.18753 3.4664 2.48981C4.41912 1.79379 5.51557 1.20035 6.72567 0.725976C7.95751 0.244281 9.3285 -0.000244141 10.8008 -0.000244141C12.8214 -0.000244141 14.4138 0.409765 15.5331 1.21749C16.6953 2.05288 17.2845 3.14189 17.2845 4.45331C17.2845 6.19841 16.54 7.54901 15.0711 8.46841C13.6572 9.352 12.0498 9.79943 10.2942 9.79943C7.85392 9.79943 6.23974 8.95088 5.49626 7.27836L6.10648 6.80965C6.48828 7.11701 7.00502 7.39488 7.6423 7.63451C8.27241 7.8709 8.90907 7.99151 9.53444 7.99151C10.906 7.99151 12.3219 7.6614 13.7434 7.01183C15.0813 6.40049 15.7318 5.64735 15.7318 4.70843C15.7318 3.66517 15.3163 2.90467 14.4634 2.38223C13.5599 1.83369 12.4132 1.55567 11.055 1.55567C10.0804 1.55567 9.05319 1.72039 8.00073 2.0448C6.94999 2.36592 5.96265 2.83946 5.06566 3.45242C4.16901 4.06289 3.43192 4.7386 2.87312 5.46234C2.33268 6.15274 2.06987 6.901 2.06987 7.7511C2.06987 8.82693 2.50374 9.74806 3.39515 10.5664C4.2892 11.3814 5.67133 11.7947 7.50301 11.7947C10.0584 11.7947 12.4818 11.3137 14.7062 10.3675C16.9782 9.39918 19.3168 8.31351 21.6576 7.14064C24.0203 5.96205 26.5291 4.86987 29.1147 3.89417C31.7138 2.91121 34.6392 2.41324 37.8098 2.41324C39.0165 2.41324 40.3054 2.56399 41.6426 2.86226C42.9241 3.15414 44.0853 3.66684 45.0977 4.38731C46.9827 3.63912 48.8397 3.20057 50.6282 3.0816L50.6251 3.06523L51.1407 3.0555C51.2556 3.05146 51.3704 3.04984 51.4805 3.04819C51.6445 3.04491 51.8326 3.04079 51.9886 3.03596C52.0161 3.03511 52.0441 3.03511 52.0726 3.03511C52.1628 3.03511 52.264 3.03838 52.3736 3.04656C54.4661 3.04731 56.6616 3.4981 58.9025 4.38647C59.9149 3.66686 61.0759 3.15417 62.3583 2.8623C63.6948 2.56402 64.9838 2.41327 66.1892 2.41327C69.3606 2.41327 72.2863 2.91121 74.8856 3.89417C77.4718 4.86987 79.9807 5.96206 82.3426 7.1414C84.6804 8.31186 87.0188 9.39763 89.293 10.3666C91.518 11.3137 93.942 11.7947 96.4971 11.7947C98.3294 11.7947 99.7112 11.3814 100.603 10.5673C101.496 9.74893 101.931 8.82693 101.931 7.7511C101.931 6.91406 101.66 6.14382 101.125 5.45996C100.569 4.73861 99.8309 4.0629 98.9336 3.45158C98.0386 2.84033 97.0506 2.36671 95.9968 2.04483C94.9469 1.72042 93.9199 1.55573 92.9453 1.55573C91.5873 1.55573 90.4404 1.83373 89.5382 2.38147C88.6833 2.90393 88.2676 3.66522 88.2676 4.70846C88.2676 5.64662 88.9179 6.40052 90.2571 7.01186C91.6786 7.66143 93.0943 7.99154 94.4653 7.99154C95.0914 7.99154 95.7278 7.87093 96.3578 7.63454C96.9962 7.39414 97.512 7.11704 97.8919 6.80968L98.5032 7.27836C97.7599 8.95086 96.1452 9.79943 93.7056 9.79943C91.9509 9.79943 90.3436 9.35203 88.9276 8.46844C87.4598 7.54904 86.7155 6.19759 86.7155 4.45334C86.7155 3.14194 87.3048 2.05291 88.4663 1.21752C89.5854 0.409796 91.1774 -0.000214577 93.1995 -0.000214577C94.5883 -0.000214577 95.9357 0.243512 97.2039 0.724376C98.4567 1.19633 99.5767 1.79053 100.53 2.48818C101.5 3.18669 102.263 4.01726 102.798 4.95618C103.337 5.90494 103.61 6.84475 103.61 7.7511C103.61 8.83508 103.358 9.80034 102.857 10.6209C102.359 11.4328 101.699 12.1149 100.897 12.6481Z" fill="#4B3322"/>
</svg>
