<svg width="24" height="25" viewBox="0 0 24 25" fill="none" xmlns="http://www.w3.org/2000/svg">
<g clip-path="url(#clip0_66_1512)">
<path d="M12 4.51965C12.855 4.51965 13.732 4.54165 14.582 4.57765L15.586 4.62565L16.547 4.68265L17.447 4.74365L18.269 4.80765C19.161 4.87593 20.0004 5.2566 20.6395 5.88269C21.2786 6.50879 21.6764 7.34019 21.763 8.23065L21.803 8.65565L21.878 9.56565C21.948 10.5087 22 11.5367 22 12.5197C22 13.5027 21.948 14.5307 21.878 15.4737L21.803 16.3837C21.79 16.5297 21.777 16.6707 21.763 16.8087C21.6764 17.6993 21.2784 18.5308 20.6391 19.1569C19.9999 19.783 19.1602 20.1636 18.268 20.2317L17.448 20.2947L16.548 20.3567L15.586 20.4137L14.582 20.4617C13.7218 20.499 12.861 20.5184 12 20.5197C11.139 20.5184 10.2782 20.499 9.418 20.4617L8.414 20.4137L7.453 20.3567L6.553 20.2947L5.731 20.2317C4.83895 20.1634 3.99955 19.7827 3.36047 19.1566C2.72139 18.5305 2.32357 17.6991 2.237 16.8087L2.197 16.3837L2.122 15.4737C2.04554 14.4908 2.00484 13.5055 2 12.5197C2 11.5367 2.052 10.5087 2.122 9.56565L2.197 8.65565C2.21 8.50965 2.223 8.36865 2.237 8.23065C2.32354 7.34035 2.72122 6.50907 3.36009 5.883C3.99897 5.25692 4.83813 4.87616 5.73 4.80765L6.551 4.74365L7.451 4.68265L8.413 4.62565L9.417 4.57765C10.2775 4.54029 11.1387 4.52095 12 4.51965ZM12 6.51965C11.175 6.51965 10.326 6.54165 9.5 6.57565L8.522 6.62265L7.583 6.67765L6.701 6.73765L5.893 6.80065C5.46833 6.83078 5.06804 7.0103 4.76309 7.30738C4.45814 7.60446 4.26822 7.99992 4.227 8.42365C4.11 9.63265 4 11.1377 4 12.5197C4 13.9017 4.11 15.4067 4.227 16.6157C4.312 17.4877 5.004 18.1657 5.893 18.2387L6.701 18.3007L7.583 18.3607L8.522 18.4167L9.5 18.4637C10.326 18.4977 11.175 18.5197 12 18.5197C12.825 18.5197 13.674 18.4977 14.5 18.4637L15.478 18.4167L16.417 18.3617L17.299 18.3017L18.107 18.2387C18.5317 18.2085 18.932 18.029 19.2369 17.7319C19.5419 17.4348 19.7318 17.0394 19.773 16.6157C19.89 15.4067 20 13.9017 20 12.5197C20 11.1377 19.89 9.63265 19.773 8.42365C19.7318 7.99992 19.5419 7.60446 19.2369 7.30738C18.932 7.0103 18.5317 6.83078 18.107 6.80065L17.299 6.73865L16.417 6.67865L15.478 6.62265L14.5 6.57565C13.6671 6.53982 12.8336 6.52115 12 6.51965ZM10 10.0947C9.99994 9.99692 10.0237 9.90064 10.0694 9.81421C10.115 9.72777 10.181 9.65379 10.2618 9.59869C10.3425 9.54359 10.4354 9.50905 10.5326 9.49806C10.6297 9.48707 10.728 9.49998 10.819 9.53565L10.9 9.57565L15.1 11.9997C15.1836 12.0479 15.2544 12.1156 15.3063 12.1971C15.3581 12.2785 15.3896 12.3713 15.3979 12.4675C15.4062 12.5637 15.3912 12.6605 15.3542 12.7497C15.3171 12.8388 15.2591 12.9177 15.185 12.9797L15.1 13.0397L10.9 15.4647C10.8154 15.5137 10.72 15.5412 10.6223 15.545C10.5246 15.5487 10.4274 15.5285 10.3393 15.4861C10.2511 15.4437 10.1747 15.3804 10.1166 15.3018C10.0585 15.2231 10.0205 15.1314 10.006 15.0347L10 14.9447V10.0947Z" fill="#060A0A"/>
</g>
<defs>
<clipPath id="clip0_66_1512">
<rect width="24" height="24" fill="white" transform="translate(0 0.519653)"/>
</clipPath>
</defs>
</svg>
